<svg id="svg" version="1.1" xmlns="http://www.w3.org/2000/svg" xmlns:xlink="http://www.w3.org/1999/xlink" width="400" height="361.90476190476187" viewBox="0, 0, 400,361.90476190476187"><g id="svgg"><path id="path0" d="M25.219 25.218 C 25.001 25.436,24.852 50.929,25.068 51.122 C 25.118 51.166,32.326 51.288,41.086 51.393 L 57.014 51.584 57.105 192.000 C 57.171 295.075,57.303 332.546,57.601 332.905 C 58.197 333.623,84.786 333.626,85.382 332.908 C 85.665 332.568,85.814 326.633,85.879 313.089 L 85.973 293.756 117.901 293.575 C 140.131 293.449,149.947 293.274,150.221 293.001 C 150.470 292.752,150.575 291.097,150.510 288.476 L 150.407 284.344 118.504 284.251 C 92.225 284.175,86.530 284.073,86.195 283.670 C 85.899 283.312,85.814 271.449,85.881 239.780 L 85.973 196.380 119.819 196.199 L 153.665 196.018 153.665 191.493 L 153.665 186.968 119.819 186.787 L 85.973 186.606 85.881 148.998 C 85.813 121.510,85.898 111.258,86.196 110.899 C 86.864 110.095,153.318 110.175,153.626 110.980 C 153.747 111.295,153.846 116.801,153.846 123.215 C 153.846 131.803,153.961 134.992,154.281 135.312 C 154.611 135.642,161.239 135.747,181.900 135.747 C 202.562 135.747,209.190 135.642,209.520 135.312 C 210.149 134.683,210.149 80.701,209.520 80.072 C 208.849 79.401,154.816 79.448,154.258 80.121 C 153.992 80.441,153.826 83.992,153.761 90.709 L 153.665 100.814 119.819 100.814 L 85.973 100.814 85.973 76.199 L 85.973 51.584 229.502 51.402 C 308.443 51.301,373.074 51.179,373.127 51.130 C 373.179 51.081,373.179 45.217,373.127 38.100 L 373.032 25.158 199.246 25.067 C 103.664 25.018,25.352 25.085,25.219 25.218 M294.489 54.489 C 293.588 55.390,292.851 56.275,292.851 56.456 C 292.851 56.636,292.533 56.885,292.145 57.008 C 291.757 57.131,291.339 57.549,291.216 57.937 C 291.093 58.325,290.821 58.643,290.612 58.643 C 289.725 58.643,287.421 61.541,287.421 62.657 C 287.421 63.548,287.016 64.149,285.430 65.615 C 283.920 67.011,283.439 67.703,283.439 68.479 C 283.439 69.275,282.797 70.144,280.543 72.398 C 278.468 74.474,277.647 75.551,277.647 76.199 C 277.647 76.848,276.827 77.925,274.751 80.000 C 272.256 82.495,271.855 83.068,271.855 84.139 C 271.855 85.052,271.669 85.440,271.150 85.605 C 270.762 85.728,270.344 86.146,270.220 86.534 C 270.097 86.922,269.856 87.240,269.685 87.240 C 269.014 87.240,268.235 88.431,268.235 89.458 C 268.235 90.459,266.553 92.391,262.981 95.489 C 262.686 95.746,262.443 96.456,262.443 97.066 C 262.443 97.931,262.043 98.553,260.633 99.876 C 259.291 101.136,258.824 101.839,258.824 102.596 C 258.824 103.394,258.193 104.232,255.928 106.447 C 253.454 108.865,253.032 109.453,253.032 110.483 C 253.032 111.497,252.744 111.916,251.219 113.124 C 250.222 113.914,249.315 114.848,249.204 115.199 C 249.092 115.550,248.861 115.837,248.689 115.837 C 248.014 115.837,247.240 117.031,247.240 118.074 C 247.240 118.924,246.831 119.556,245.430 120.872 C 244.074 122.145,243.620 122.831,243.620 123.609 C 243.620 124.434,243.026 125.216,240.724 127.421 C 238.445 129.604,237.828 130.412,237.828 131.215 C 237.828 131.977,237.324 132.724,235.837 134.164 C 234.311 135.642,233.846 136.341,233.846 137.159 C 233.846 138.230,232.408 140.034,230.918 140.832 C 230.296 141.165,230.226 141.641,230.226 145.576 L 230.226 149.949 231.627 151.350 L 233.028 152.751 246.740 152.846 L 260.452 152.941 260.544 207.692 L 260.636 262.443 248.837 262.443 L 237.039 262.443 236.086 263.529 C 235.415 264.294,234.804 264.615,234.019 264.615 C 232.172 264.615,232.036 265.018,232.036 270.512 L 232.036 275.539 234.932 278.393 C 237.455 280.879,237.828 281.409,237.828 282.511 C 237.828 283.388,238.041 283.890,238.524 284.148 C 240.475 285.192,245.393 290.786,245.501 292.085 C 245.581 293.035,245.835 293.492,246.429 293.752 C 246.878 293.950,247.335 294.389,247.443 294.729 C 247.551 295.069,247.948 295.446,248.326 295.566 C 248.704 295.686,249.109 296.087,249.226 296.457 C 249.344 296.827,249.841 297.392,250.331 297.714 C 250.964 298.128,251.222 298.626,251.222 299.431 C 251.222 300.367,251.697 301.027,253.937 303.202 C 256.016 305.222,256.652 306.071,256.652 306.833 C 256.652 307.601,257.311 308.466,259.548 310.631 C 261.912 312.921,262.443 313.636,262.443 314.532 C 262.443 315.134,262.696 315.838,263.004 316.094 C 263.312 316.351,263.760 316.774,263.999 317.035 C 264.936 318.054,267.513 320.602,268.747 321.729 C 269.662 322.565,270.045 323.222,270.045 323.958 C 270.045 325.015,274.519 330.136,275.443 330.136 C 275.660 330.136,275.837 330.720,275.837 331.434 C 275.837 332.578,276.179 333.066,278.733 335.566 C 280.946 337.731,281.629 338.632,281.629 339.383 C 281.629 340.149,282.466 341.198,285.430 344.148 C 288.788 347.490,289.231 348.076,289.231 349.177 C 289.231 350.152,289.426 350.512,290.129 350.832 C 290.623 351.057,291.120 351.534,291.233 351.892 C 291.347 352.249,291.732 352.635,292.090 352.749 C 292.448 352.862,292.925 353.359,293.150 353.853 C 293.553 354.737,293.627 354.751,297.951 354.751 L 302.344 354.751 305.742 351.280 C 308.662 348.297,309.140 347.639,309.140 346.599 C 309.140 345.717,309.332 345.327,309.846 345.164 C 310.234 345.041,310.652 344.623,310.775 344.235 C 310.898 343.847,311.147 343.529,311.327 343.529 C 312.170 343.529,314.932 340.218,314.932 339.208 C 314.932 338.389,315.519 337.580,317.647 335.466 C 319.638 333.488,320.362 332.518,320.362 331.828 C 320.362 331.113,321.277 329.979,324.163 327.118 C 327.151 324.154,327.964 323.136,327.964 322.355 C 327.964 321.590,328.630 320.709,330.860 318.530 C 333.333 316.113,333.756 315.524,333.756 314.494 C 333.756 313.480,334.043 313.061,335.568 311.853 C 336.565 311.063,337.472 310.130,337.584 309.779 C 337.695 309.428,337.927 309.140,338.098 309.140 C 338.770 309.140,339.548 307.949,339.548 306.918 C 339.548 306.038,340.092 305.306,342.443 303.030 C 344.644 300.899,345.339 299.993,345.339 299.256 C 345.339 298.507,346.202 297.429,349.140 294.505 C 352.519 291.142,352.941 290.582,352.941 289.458 C 352.941 288.523,353.125 288.135,353.647 287.970 C 354.035 287.847,354.453 287.428,354.576 287.040 C 354.699 286.652,354.948 286.335,355.128 286.335 C 355.971 286.335,358.733 283.024,358.733 282.013 C 358.733 281.195,359.320 280.386,361.448 278.272 L 364.163 275.574 364.163 271.510 L 364.163 267.446 361.646 264.945 L 359.130 262.443 348.433 262.443 L 337.735 262.443 337.827 207.692 L 337.919 152.941 351.774 152.846 L 365.630 152.752 366.041 151.851 C 366.266 151.356,366.576 150.950,366.729 150.950 C 368.470 150.950,368.914 142.196,367.240 140.879 C 366.666 140.428,366.335 139.803,366.335 139.170 C 366.335 138.403,365.668 137.515,363.439 135.319 C 361.235 133.147,360.543 132.232,360.543 131.486 C 360.543 130.932,360.156 130.111,359.652 129.597 C 359.161 129.097,358.017 127.914,357.108 126.968 C 356.199 126.023,355.297 125.249,355.104 125.249 C 354.910 125.249,354.751 124.594,354.751 123.793 C 354.751 122.595,354.592 122.265,353.853 121.928 C 353.359 121.703,352.859 121.218,352.743 120.850 C 352.626 120.481,352.215 120.012,351.831 119.806 C 351.367 119.557,351.131 119.048,351.131 118.291 C 351.131 117.340,350.649 116.683,348.235 114.346 C 346.024 112.205,345.339 111.311,345.339 110.565 C 345.339 109.866,344.774 109.019,343.348 107.582 C 341.732 105.952,341.357 105.347,341.357 104.363 C 341.357 103.425,341.155 103.060,340.459 102.743 C 339.966 102.518,339.469 102.041,339.355 101.683 C 339.241 101.325,338.839 100.934,338.462 100.814 C 338.084 100.695,337.678 100.294,337.561 99.923 C 337.443 99.553,336.956 98.994,336.479 98.681 C 335.866 98.280,335.577 97.711,335.497 96.748 C 335.414 95.744,335.170 95.290,334.570 95.027 C 334.122 94.831,333.756 94.539,333.756 94.380 C 333.756 94.220,332.941 93.288,331.946 92.308 C 330.637 91.020,330.136 90.248,330.136 89.522 C 330.136 88.774,329.630 88.045,328.145 86.651 C 326.606 85.208,326.154 84.541,326.154 83.718 C 326.154 83.027,325.805 82.324,325.158 81.711 C 324.611 81.193,323.964 80.556,323.720 80.294 C 322.747 79.249,322.311 78.806,321.357 77.894 C 320.665 77.233,320.362 76.579,320.362 75.749 C 320.362 74.829,320.156 74.461,319.464 74.145 C 318.970 73.920,318.473 73.444,318.359 73.086 C 318.246 72.728,317.836 72.334,317.448 72.211 C 316.926 72.046,316.742 71.658,316.742 70.726 C 316.742 69.628,316.366 69.092,313.846 66.606 C 311.598 64.388,310.950 63.523,310.950 62.737 C 310.950 61.946,310.319 61.118,308.054 58.940 C 305.508 56.491,305.158 56.001,305.158 54.877 C 305.158 53.116,304.476 52.851,299.943 52.851 L 296.128 52.851 294.489 54.489 M304.372 55.362 C 304.468 56.373,305.029 57.125,307.358 59.372 C 309.668 61.599,310.226 62.346,310.226 63.205 C 310.226 63.898,310.576 64.607,311.222 65.225 C 311.769 65.748,312.380 66.352,312.579 66.567 C 312.778 66.782,313.552 67.509,314.299 68.183 C 315.322 69.105,315.656 69.688,315.656 70.549 C 315.656 71.457,316.062 72.084,317.647 73.619 C 319.115 75.040,319.638 75.810,319.638 76.547 C 319.638 77.324,320.286 78.173,322.534 80.340 C 324.833 82.558,325.430 83.347,325.430 84.173 C 325.430 84.952,325.883 85.637,327.240 86.911 C 328.649 88.234,329.050 88.856,329.050 89.721 C 329.050 90.332,329.300 91.041,329.606 91.298 C 332.826 93.997,334.842 96.349,334.842 97.406 C 334.842 98.353,335.325 99.009,337.738 101.336 C 340.037 103.553,340.633 104.343,340.633 105.168 C 340.633 105.947,341.086 106.633,342.443 107.907 C 343.853 109.230,344.253 109.852,344.253 110.716 C 344.253 111.327,344.504 112.037,344.810 112.293 C 347.877 114.865,350.045 117.355,350.045 118.305 C 350.045 119.363,351.813 121.555,353.314 122.359 C 353.818 122.628,354.027 123.117,354.027 124.024 C 354.027 125.153,354.377 125.648,356.923 128.123 C 359.136 130.274,359.819 131.170,359.819 131.918 C 359.819 132.657,360.485 133.554,362.534 135.577 C 364.541 137.559,365.249 138.505,365.249 139.206 C 365.249 139.808,365.647 140.505,366.335 141.109 C 367.404 142.047,367.421 142.117,367.421 145.644 L 367.421 149.225 366.015 150.631 L 364.610 152.036 351.200 152.036 C 339.491 152.036,337.717 152.108,337.220 152.605 C 336.216 153.610,336.368 261.798,337.376 262.805 C 338.067 263.497,338.582 263.529,348.812 263.529 C 359.220 263.529,359.530 263.550,359.714 264.253 C 359.818 264.652,360.034 264.977,360.194 264.977 C 360.353 264.977,361.149 265.616,361.961 266.397 L 363.439 267.817 363.439 271.478 L 363.439 275.139 360.543 278.031 C 358.033 280.537,357.647 281.091,357.647 282.181 C 357.647 282.873,357.506 283.439,357.333 283.439 C 356.414 283.439,351.855 288.557,351.855 289.588 C 351.855 290.561,348.157 294.707,344.816 297.480 C 344.506 297.737,344.253 298.439,344.253 299.041 C 344.253 299.926,343.736 300.637,341.538 302.771 C 339.423 304.825,338.824 305.634,338.824 306.430 C 338.824 307.235,338.209 308.041,335.928 310.226 C 333.472 312.579,333.032 313.179,333.032 314.176 C 333.032 315.081,332.701 315.657,331.595 316.680 C 329.469 318.648,329.271 318.836,328.796 319.349 C 328.556 319.608,328.108 320.029,327.800 320.286 C 327.492 320.542,327.240 321.240,327.240 321.836 C 327.240 322.731,326.580 323.574,323.439 326.688 C 320.560 329.543,319.638 330.685,319.638 331.395 C 319.638 332.086,318.873 333.097,316.742 335.226 C 314.659 337.306,313.846 338.373,313.846 339.026 C 313.846 339.680,313.033 340.747,310.950 342.827 C 308.441 345.334,308.054 345.887,308.054 346.977 C 308.054 347.862,307.891 348.235,307.504 348.235 C 307.201 348.235,306.769 348.639,306.544 349.133 C 306.319 349.627,305.833 350.127,305.465 350.244 C 305.097 350.360,304.796 350.595,304.796 350.764 C 304.796 350.934,304.158 351.737,303.377 352.550 L 301.957 354.027 298.275 354.027 L 294.594 354.027 292.274 351.708 C 290.569 350.002,289.955 349.130,289.955 348.411 C 289.955 347.649,289.119 346.614,286.154 343.702 C 282.993 340.598,282.353 339.786,282.353 338.878 C 282.353 338.079,282.062 337.580,281.267 337.014 C 280.670 336.588,280.181 336.018,280.181 335.746 C 280.181 335.475,279.864 335.152,279.476 335.029 C 279.088 334.905,278.677 334.512,278.564 334.154 C 278.450 333.796,277.953 333.319,277.459 333.094 C 276.752 332.772,276.561 332.416,276.561 331.419 C 276.561 330.473,276.336 330.005,275.670 329.569 C 275.180 329.248,274.683 328.682,274.566 328.312 C 274.448 327.942,274.043 327.541,273.665 327.421 C 273.287 327.301,272.880 326.894,272.760 326.516 C 272.640 326.138,272.225 325.728,271.837 325.605 C 271.318 325.440,271.131 325.052,271.131 324.139 C 271.131 323.038,270.676 322.445,267.149 318.946 C 264.009 315.831,263.167 314.786,263.167 314.003 C 263.167 313.242,262.531 312.391,260.452 310.373 C 258.255 308.238,257.738 307.528,257.738 306.642 C 257.738 306.041,257.487 305.339,257.181 305.082 C 253.931 302.357,251.946 300.033,251.946 298.954 C 251.946 297.818,249.472 295.018,246.968 293.320 C 246.383 292.923,246.154 292.410,246.154 291.494 C 246.154 290.353,245.759 289.836,242.353 286.524 C 239.349 283.603,238.552 282.620,238.552 281.835 C 238.552 281.112,238.010 280.305,236.561 278.867 C 235.466 277.781,234.570 276.762,234.570 276.604 C 234.570 276.445,234.158 276.128,233.655 275.898 L 232.740 275.481 232.840 270.501 L 232.941 265.520 233.846 265.419 C 235.748 265.206,236.339 264.952,236.561 264.253 C 236.784 263.550,237.113 263.529,248.374 263.529 C 255.666 263.529,260.216 263.391,260.657 263.155 C 261.525 262.690,261.788 153.335,260.923 152.471 C 260.601 152.148,257.003 152.036,246.974 152.036 L 233.460 152.036 232.205 150.781 L 230.950 149.526 230.950 145.840 L 230.950 142.153 232.941 140.225 C 234.435 138.778,234.932 138.040,234.932 137.268 C 234.932 136.669,235.272 135.920,235.747 135.475 C 236.195 135.055,236.757 134.496,236.996 134.233 C 237.236 133.971,237.684 133.546,237.992 133.289 C 238.300 133.032,238.552 132.327,238.552 131.722 C 238.552 130.905,238.921 130.280,239.989 129.293 C 242.115 127.325,242.313 127.137,242.788 126.624 C 243.027 126.365,243.475 125.944,243.784 125.687 C 244.092 125.430,244.344 124.721,244.344 124.110 C 244.344 123.245,244.745 122.623,246.154 121.300 C 247.510 120.027,247.964 119.341,247.964 118.563 C 247.964 117.738,248.558 116.956,250.860 114.751 C 253.315 112.399,253.756 111.798,253.756 110.802 C 253.756 109.897,254.086 109.321,255.192 108.297 C 257.319 106.330,257.516 106.141,257.992 105.628 C 258.231 105.370,258.679 104.948,258.987 104.692 C 259.295 104.435,259.548 103.725,259.548 103.115 C 259.548 102.250,259.948 101.628,261.357 100.305 C 262.714 99.032,263.167 98.345,263.167 97.568 C 263.167 96.743,263.762 95.960,266.063 93.756 C 268.400 91.517,268.959 90.776,268.959 89.915 C 268.959 89.222,269.308 88.519,269.955 87.905 C 270.502 87.386,271.146 86.739,271.385 86.467 C 271.625 86.195,272.073 85.763,272.381 85.506 C 272.689 85.249,272.941 84.487,272.941 83.811 C 272.941 82.901,273.129 82.523,273.665 82.353 C 274.063 82.227,274.389 81.976,274.389 81.795 C 274.389 81.501,276.712 79.110,278.169 77.904 C 278.479 77.648,278.733 76.885,278.733 76.209 C 278.733 75.299,278.920 74.921,279.457 74.751 C 279.855 74.625,280.182 74.329,280.184 74.093 C 280.186 73.858,281.082 72.854,282.175 71.863 C 283.754 70.432,284.163 69.834,284.163 68.959 C 284.163 68.085,284.572 67.487,286.151 66.056 C 287.704 64.647,288.139 64.019,288.142 63.180 C 288.145 62.094,288.543 61.559,291.196 59.071 C 291.978 58.338,293.444 56.890,294.454 55.854 L 296.290 53.970 300.271 54.044 L 304.253 54.118 304.372 55.362 M209.218 80.700 C 209.466 81.164,209.593 90.261,209.593 107.692 C 209.593 125.124,209.466 134.220,209.218 134.684 C 208.739 135.580,155.734 135.808,154.995 134.917 C 154.015 133.736,154.013 81.651,154.993 80.470 C 155.734 79.577,208.738 79.803,209.218 80.700 " stroke="none" fill="#c4c4c4" fill-rule="evenodd"></path><path id="path1" d="M294.454 55.854 C 293.444 56.890,291.978 58.338,291.196 59.071 C 288.543 61.559,288.145 62.094,288.142 63.180 C 288.139 64.019,287.704 64.647,286.151 66.056 C 284.572 67.487,284.163 68.085,284.163 68.959 C 284.163 69.834,283.754 70.432,282.175 71.863 C 281.082 72.854,280.186 73.858,280.184 74.093 C 280.182 74.329,279.855 74.625,279.457 74.751 C 278.920 74.921,278.733 75.299,278.733 76.209 C 278.733 76.885,278.479 77.648,278.169 77.904 C 276.712 79.110,274.389 81.501,274.389 81.795 C 274.389 81.976,274.063 82.227,273.665 82.353 C 273.129 82.523,272.941 82.901,272.941 83.811 C 272.941 84.487,272.689 85.249,272.381 85.506 C 272.073 85.763,271.625 86.195,271.385 86.467 C 271.146 86.739,270.502 87.386,269.955 87.905 C 269.308 88.519,268.959 89.222,268.959 89.915 C 268.959 90.776,268.400 91.517,266.063 93.756 C 263.762 95.960,263.167 96.743,263.167 97.568 C 263.167 98.345,262.714 99.032,261.357 100.305 C 259.948 101.628,259.548 102.250,259.548 103.115 C 259.548 103.725,259.295 104.435,258.987 104.692 C 258.679 104.948,258.231 105.370,257.992 105.628 C 257.516 106.141,257.319 106.330,255.192 108.297 C 254.086 109.321,253.756 109.897,253.756 110.802 C 253.756 111.798,253.315 112.399,250.860 114.751 C 248.558 116.956,247.964 117.738,247.964 118.563 C 247.964 119.341,247.510 120.027,246.154 121.300 C 244.745 122.623,244.344 123.245,244.344 124.110 C 244.344 124.721,244.092 125.430,243.784 125.687 C 243.475 125.944,243.027 126.365,242.788 126.624 C 242.313 127.137,242.115 127.325,239.989 129.293 C 238.921 130.280,238.552 130.905,238.552 131.722 C 238.552 132.327,238.300 133.032,237.992 133.289 C 237.684 133.546,237.236 133.971,236.996 134.233 C 236.757 134.496,236.195 135.055,235.747 135.475 C 235.272 135.920,234.932 136.669,234.932 137.268 C 234.932 138.040,234.435 138.778,232.941 140.225 L 230.950 142.153 230.950 145.840 L 230.950 149.526 232.205 150.781 L 233.460 152.036 246.974 152.036 C 257.003 152.036,260.601 152.148,260.923 152.471 C 261.788 153.335,261.525 262.690,260.657 263.155 C 260.216 263.391,255.666 263.529,248.374 263.529 C 237.113 263.529,236.784 263.550,236.561 264.253 C 236.339 264.952,235.748 265.206,233.846 265.419 L 232.941 265.520 232.840 270.501 L 232.740 275.481 233.655 275.898 C 234.158 276.128,234.570 276.445,234.570 276.604 C 234.570 276.762,235.466 277.781,236.561 278.867 C 238.010 280.305,238.552 281.112,238.552 281.835 C 238.552 282.620,239.349 283.603,242.353 286.524 C 245.759 289.836,246.154 290.353,246.154 291.494 C 246.154 292.410,246.383 292.923,246.968 293.320 C 249.472 295.018,251.946 297.818,251.946 298.954 C 251.946 300.033,253.931 302.357,257.181 305.082 C 257.487 305.339,257.738 306.041,257.738 306.642 C 257.738 307.528,258.255 308.238,260.452 310.373 C 262.531 312.391,263.167 313.242,263.167 314.003 C 263.167 314.786,264.009 315.831,267.149 318.946 C 270.676 322.445,271.131 323.038,271.131 324.139 C 271.131 325.052,271.318 325.440,271.837 325.605 C 272.225 325.728,272.640 326.138,272.760 326.516 C 272.880 326.894,273.287 327.301,273.665 327.421 C 274.043 327.541,274.448 327.942,274.566 328.312 C 274.683 328.682,275.180 329.248,275.670 329.569 C 276.336 330.005,276.561 330.473,276.561 331.419 C 276.561 332.416,276.752 332.772,277.459 333.094 C 277.953 333.319,278.450 333.796,278.564 334.154 C 278.677 334.512,279.088 334.905,279.476 335.029 C 279.864 335.152,280.181 335.475,280.181 335.746 C 280.181 336.018,280.670 336.588,281.267 337.014 C 282.062 337.580,282.353 338.079,282.353 338.878 C 282.353 339.786,282.993 340.598,286.154 343.702 C 289.119 346.614,289.955 347.649,289.955 348.411 C 289.955 349.130,290.569 350.002,292.274 351.708 L 294.594 354.027 298.275 354.027 L 301.957 354.027 303.377 352.550 C 304.158 351.737,304.796 350.934,304.796 350.764 C 304.796 350.595,305.097 350.360,305.465 350.244 C 305.833 350.127,306.319 349.627,306.544 349.133 C 306.769 348.639,307.201 348.235,307.504 348.235 C 307.891 348.235,308.054 347.862,308.054 346.977 C 308.054 345.887,308.441 345.334,310.950 342.827 C 313.033 340.747,313.846 339.680,313.846 339.026 C 313.846 338.373,314.659 337.306,316.742 335.226 C 318.873 333.097,319.638 332.086,319.638 331.395 C 319.638 330.685,320.560 329.543,323.439 326.688 C 326.580 323.574,327.240 322.731,327.240 321.836 C 327.240 321.240,327.492 320.542,327.800 320.286 C 328.108 320.029,328.556 319.608,328.796 319.349 C 329.271 318.836,329.469 318.648,331.595 316.680 C 332.701 315.657,333.032 315.081,333.032 314.176 C 333.032 313.179,333.472 312.579,335.928 310.226 C 338.209 308.041,338.824 307.235,338.824 306.430 C 338.824 305.634,339.423 304.825,341.538 302.771 C 343.736 300.637,344.253 299.926,344.253 299.041 C 344.253 298.439,344.506 297.737,344.816 297.480 C 348.157 294.707,351.855 290.561,351.855 289.588 C 351.855 288.557,356.414 283.439,357.333 283.439 C 357.506 283.439,357.647 282.873,357.647 282.181 C 357.647 281.091,358.033 280.537,360.543 278.031 L 363.439 275.139 363.439 271.478 L 363.439 267.817 361.961 266.397 C 361.149 265.616,360.353 264.977,360.194 264.977 C 360.034 264.977,359.818 264.652,359.714 264.253 C 359.530 263.550,359.220 263.529,348.812 263.529 C 338.582 263.529,338.067 263.497,337.376 262.805 C 336.368 261.798,336.216 153.610,337.220 152.605 C 337.717 152.108,339.491 152.036,351.200 152.036 L 364.610 152.036 366.015 150.631 L 367.421 149.225 367.421 145.644 C 367.421 142.117,367.404 142.047,366.335 141.109 C 365.647 140.505,365.249 139.808,365.249 139.206 C 365.249 138.505,364.541 137.559,362.534 135.577 C 360.485 133.554,359.819 132.657,359.819 131.918 C 359.819 131.170,359.136 130.274,356.923 128.123 C 354.377 125.648,354.027 125.153,354.027 124.024 C 354.027 123.117,353.818 122.628,353.314 122.359 C 351.813 121.555,350.045 119.363,350.045 118.305 C 350.045 117.355,347.877 114.865,344.810 112.293 C 344.504 112.037,344.253 111.327,344.253 110.716 C 344.253 109.852,343.853 109.230,342.443 107.907 C 341.086 106.633,340.633 105.947,340.633 105.168 C 340.633 104.343,340.037 103.553,337.738 101.336 C 335.325 99.009,334.842 98.353,334.842 97.406 C 334.842 96.349,332.826 93.997,329.606 91.298 C 329.300 91.041,329.050 90.332,329.050 89.721 C 329.050 88.856,328.649 88.234,327.240 86.911 C 325.883 85.637,325.430 84.952,325.430 84.173 C 325.430 83.347,324.833 82.558,322.534 80.340 C 320.286 78.173,319.638 77.324,319.638 76.547 C 319.638 75.810,319.115 75.040,317.647 73.619 C 316.062 72.084,315.656 71.457,315.656 70.549 C 315.656 69.688,315.322 69.105,314.299 68.183 C 313.552 67.509,312.778 66.782,312.579 66.567 C 312.380 66.352,311.769 65.748,311.222 65.225 C 310.576 64.607,310.226 63.898,310.226 63.205 C 310.226 62.346,309.668 61.599,307.358 59.372 C 305.029 57.125,304.468 56.373,304.372 55.362 L 304.253 54.118 300.271 54.044 L 296.290 53.970 294.454 55.854 M301.538 75.976 C 302.525 76.934,302.986 77.693,302.986 78.361 C 302.986 79.064,303.500 79.836,304.796 81.086 C 306.314 82.549,306.606 83.042,306.606 84.142 C 306.606 85.004,306.803 85.528,307.180 85.673 C 308.591 86.214,312.398 90.536,312.398 91.596 C 312.398 92.444,312.973 93.209,315.294 95.451 C 317.598 97.677,318.190 98.462,318.190 99.293 C 318.190 100.072,318.650 100.780,320.000 102.081 C 321.296 103.330,321.810 104.104,321.810 104.805 C 321.810 105.549,322.504 106.469,324.706 108.641 C 326.864 110.770,327.602 111.740,327.602 112.448 C 327.602 113.118,328.187 113.978,329.593 115.372 C 331.117 116.885,331.584 117.600,331.584 118.424 C 331.584 119.288,332.120 120.021,334.299 122.137 C 336.388 124.167,337.014 125.005,337.014 125.776 C 337.014 126.555,337.660 127.401,339.910 129.571 C 342.302 131.878,342.805 132.558,342.805 133.482 C 342.805 134.276,343.085 134.804,343.769 135.302 C 345.963 136.900,344.943 137.195,337.214 137.195 L 330.152 137.195 329.559 138.100 C 329.134 138.749,328.643 139.005,327.822 139.005 C 326.887 139.005,326.235 139.456,324.244 141.482 L 321.810 143.959 321.810 209.596 L 321.810 275.232 323.348 276.799 L 324.887 278.366 332.739 278.368 C 341.145 278.371,341.950 278.547,340.149 279.983 C 339.500 280.501,339.186 281.097,339.186 281.812 C 339.186 282.664,338.618 283.418,336.290 285.654 C 333.865 287.983,333.394 288.622,333.394 289.582 C 333.394 290.529,332.976 291.116,330.990 292.966 C 325.815 297.784,325.792 297.811,325.792 298.966 C 325.792 299.865,325.255 300.603,322.896 302.943 C 320.669 305.152,320.000 306.046,320.000 306.815 C 320.000 307.592,319.355 308.432,317.104 310.588 C 314.851 312.746,314.208 313.585,314.208 314.363 C 314.208 315.132,313.536 316.035,311.312 318.256 C 309.027 320.538,308.416 321.369,308.416 322.195 C 308.416 322.912,308.131 323.428,307.511 323.834 C 307.014 324.160,306.606 324.582,306.606 324.771 C 306.606 324.959,305.303 326.367,303.710 327.899 C 301.455 330.068,300.814 330.907,300.814 331.689 C 300.814 332.357,300.385 333.124,299.532 333.976 L 298.250 335.258 296.817 333.826 C 295.881 332.889,295.385 332.066,295.385 331.449 C 295.385 330.747,294.643 329.778,292.489 327.667 C 290.222 325.445,289.593 324.607,289.593 323.806 C 289.593 322.983,288.849 322.060,285.792 319.087 C 282.797 316.174,281.991 315.181,281.991 314.402 C 281.991 313.650,281.301 312.725,279.095 310.522 C 276.784 308.215,276.199 307.415,276.199 306.563 C 276.199 305.567,274.197 302.998,273.406 302.980 C 272.764 302.965,270.769 300.082,270.769 299.169 C 270.769 298.430,270.078 297.532,267.873 295.406 C 265.614 293.227,264.977 292.392,264.977 291.605 C 264.977 290.803,264.195 289.821,261.176 286.836 C 258.072 283.765,257.376 282.882,257.376 282.017 C 257.376 281.306,257.065 280.713,256.430 280.213 C 254.365 278.590,255.221 278.371,263.637 278.371 L 271.370 278.371 273.784 276.038 L 276.199 273.705 276.199 208.680 L 276.199 143.655 273.804 141.330 C 271.992 139.571,271.157 139.005,270.374 139.005 C 269.668 139.005,269.149 138.716,268.745 138.100 L 268.152 137.195 261.207 137.195 C 252.778 137.195,252.637 137.127,255.397 134.389 C 256.788 133.009,257.376 132.145,257.376 131.480 C 257.376 130.813,257.909 130.034,259.186 128.835 C 260.598 127.510,260.995 126.891,260.995 126.022 C 260.995 125.109,261.521 124.386,263.891 122.035 C 266.168 119.776,266.787 118.940,266.787 118.125 C 266.787 117.329,267.248 116.671,268.775 115.286 C 270.331 113.876,270.764 113.250,270.766 112.408 C 270.769 111.545,271.305 110.817,273.484 108.721 C 275.635 106.653,276.199 105.892,276.199 105.063 C 276.199 104.259,276.660 103.590,278.190 102.176 C 279.285 101.164,280.181 100.177,280.181 99.983 C 280.181 99.789,280.588 99.364,281.086 99.038 C 281.741 98.609,281.992 98.122,281.993 97.277 C 281.995 96.318,282.352 95.792,283.984 94.341 C 285.540 92.958,285.973 92.343,285.973 91.513 C 285.973 90.671,286.536 89.895,288.688 87.771 C 290.809 85.678,291.403 84.865,291.403 84.056 C 291.403 83.266,291.874 82.586,293.394 81.181 C 295.082 79.621,295.385 79.147,295.385 78.066 C 295.385 77.129,295.568 76.733,296.076 76.571 C 296.457 76.451,297.030 75.951,297.352 75.461 C 298.256 74.081,299.778 74.268,301.538 75.976 M154.993 80.470 C 154.013 81.651,154.015 133.736,154.995 134.917 C 155.734 135.808,208.739 135.580,209.218 134.684 C 209.466 134.220,209.593 125.124,209.593 107.692 C 209.593 90.261,209.466 81.164,209.218 80.700 C 208.738 79.803,155.734 79.577,154.993 80.470 M209.011 80.935 C 209.298 81.683,209.298 133.702,209.011 134.450 C 208.743 135.150,155.536 135.345,155.106 134.648 C 154.794 134.144,154.779 81.264,155.091 80.760 C 155.535 80.041,208.734 80.214,209.011 80.935 " stroke="none" fill="#7494bc" fill-rule="evenodd"></path><path id="path2" d="M0.000 180.995 L 0.000 361.991 200.000 361.991 L 400.000 361.991 400.000 180.995 L 400.000 0.000 200.000 0.000 L 0.000 0.000 0.000 180.995 M372.913 25.214 C 373.741 25.964,373.954 50.154,373.140 50.968 C 372.804 51.305,340.440 51.403,229.683 51.403 C 118.926 51.403,86.563 51.501,86.226 51.837 C 85.598 52.465,85.598 99.933,86.226 100.561 C 86.978 101.313,153.337 101.177,153.626 100.423 C 153.747 100.108,153.849 95.506,153.852 90.197 C 153.855 84.748,154.007 80.306,154.200 80.000 C 154.709 79.195,208.332 78.985,209.424 79.783 C 210.542 80.601,210.542 134.784,209.424 135.601 C 208.619 136.190,154.917 136.214,154.329 135.626 C 154.163 135.461,153.946 129.841,153.846 123.138 L 153.665 110.950 119.819 110.950 L 85.973 110.950 85.881 148.377 C 85.813 175.732,85.898 185.936,86.196 186.296 C 86.864 187.100,153.318 187.020,153.626 186.215 C 153.747 185.900,153.846 180.394,153.846 173.979 C 153.846 165.391,153.961 162.202,154.281 161.882 C 155.141 161.022,211.288 161.282,211.752 162.148 C 212.001 162.613,212.127 172.159,212.127 190.588 C 212.127 209.018,212.001 218.563,211.752 219.028 C 211.288 219.895,155.141 220.155,154.281 219.294 C 153.962 218.976,153.846 215.986,153.846 208.102 C 153.846 202.185,153.747 197.087,153.626 196.772 C 153.318 195.967,86.864 195.887,86.197 196.690 C 85.898 197.050,85.814 208.763,85.881 240.401 L 85.973 283.620 117.919 283.712 L 149.864 283.805 149.864 270.797 C 149.864 259.454,149.937 257.716,150.433 257.220 C 151.301 256.353,210.690 256.353,211.558 257.220 C 212.425 258.088,212.425 317.478,211.558 318.345 C 210.890 319.013,151.636 319.221,150.588 318.560 C 150.129 318.270,150.017 316.328,149.864 305.986 L 149.683 293.756 118.552 293.656 C 101.430 293.601,87.054 293.645,86.606 293.753 L 85.792 293.950 85.792 313.238 C 85.792 327.756,85.684 332.632,85.357 332.959 C 84.734 333.583,58.252 333.583,57.629 332.959 C 57.293 332.623,57.195 300.903,57.195 192.398 C 57.195 83.893,57.097 52.173,56.760 51.837 C 56.436 51.513,52.416 51.403,40.905 51.403 C 29.394 51.403,25.374 51.293,25.050 50.968 C 24.289 50.208,24.443 26.129,25.214 25.277 C 26.103 24.296,371.829 24.234,372.913 25.214 M304.458 53.225 C 304.947 53.487,305.158 53.985,305.158 54.877 C 305.158 56.001,305.508 56.491,308.054 58.940 C 310.319 61.118,310.950 61.946,310.950 62.737 C 310.950 63.523,311.598 64.388,313.846 66.606 C 316.366 69.092,316.742 69.628,316.742 70.726 C 316.742 71.658,316.926 72.046,317.448 72.211 C 317.836 72.334,318.246 72.728,318.359 73.086 C 318.473 73.444,318.970 73.920,319.464 74.145 C 320.156 74.461,320.362 74.829,320.362 75.749 C 320.362 76.579,320.665 77.233,321.357 77.894 C 322.311 78.806,322.747 79.249,323.720 80.294 C 323.964 80.556,324.611 81.193,325.158 81.711 C 325.805 82.324,326.154 83.027,326.154 83.718 C 326.154 84.541,326.606 85.208,328.145 86.651 C 329.630 88.045,330.136 88.774,330.136 89.522 C 330.136 90.248,330.637 91.020,331.946 92.308 C 332.941 93.288,333.756 94.220,333.756 94.380 C 333.756 94.539,334.122 94.831,334.570 95.027 C 335.170 95.290,335.414 95.744,335.497 96.748 C 335.577 97.711,335.866 98.280,336.479 98.681 C 336.956 98.994,337.443 99.553,337.561 99.923 C 337.678 100.294,338.084 100.695,338.462 100.814 C 338.839 100.934,339.241 101.325,339.355 101.683 C 339.469 102.041,339.966 102.518,340.459 102.743 C 341.155 103.060,341.357 103.425,341.357 104.363 C 341.357 105.347,341.732 105.952,343.348 107.582 C 344.774 109.019,345.339 109.866,345.339 110.565 C 345.339 111.311,346.024 112.205,348.235 114.346 C 350.649 116.683,351.131 117.340,351.131 118.291 C 351.131 119.048,351.367 119.557,351.831 119.806 C 352.215 120.012,352.626 120.481,352.743 120.850 C 352.859 121.218,353.359 121.703,353.853 121.928 C 354.592 122.265,354.751 122.595,354.751 123.793 C 354.751 124.594,354.910 125.249,355.104 125.249 C 355.297 125.249,356.199 126.023,357.108 126.968 C 358.017 127.914,359.161 129.097,359.652 129.597 C 360.156 130.111,360.543 130.932,360.543 131.486 C 360.543 132.232,361.235 133.147,363.439 135.319 C 365.668 137.515,366.335 138.403,366.335 139.170 C 366.335 139.803,366.666 140.428,367.240 140.879 C 368.914 142.196,368.470 150.950,366.729 150.950 C 366.576 150.950,366.266 151.356,366.041 151.851 L 365.630 152.752 351.774 152.846 L 337.919 152.941 337.827 207.692 L 337.735 262.443 348.433 262.443 L 359.130 262.443 361.646 264.945 L 364.163 267.446 364.163 271.510 L 364.163 275.574 361.448 278.272 C 359.320 280.386,358.733 281.195,358.733 282.013 C 358.733 283.024,355.971 286.335,355.128 286.335 C 354.948 286.335,354.699 286.652,354.576 287.040 C 354.453 287.428,354.035 287.847,353.647 287.970 C 353.125 288.135,352.941 288.523,352.941 289.458 C 352.941 290.582,352.519 291.142,349.140 294.505 C 346.202 297.429,345.339 298.507,345.339 299.256 C 345.339 299.993,344.644 300.899,342.443 303.030 C 340.092 305.306,339.548 306.038,339.548 306.918 C 339.548 307.949,338.770 309.140,338.098 309.140 C 337.927 309.140,337.695 309.428,337.584 309.779 C 337.472 310.130,336.565 311.063,335.568 311.853 C 334.043 313.061,333.756 313.480,333.756 314.494 C 333.756 315.524,333.333 316.113,330.860 318.530 C 328.630 320.709,327.964 321.590,327.964 322.355 C 327.964 323.136,327.151 324.154,324.163 327.118 C 321.277 329.979,320.362 331.113,320.362 331.828 C 320.362 332.518,319.638 333.488,317.647 335.466 C 315.519 337.580,314.932 338.389,314.932 339.208 C 314.932 340.218,312.170 343.529,311.327 343.529 C 311.147 343.529,310.898 343.847,310.775 344.235 C 310.652 344.623,310.234 345.041,309.846 345.164 C 309.332 345.327,309.140 345.717,309.140 346.599 C 309.140 347.639,308.662 348.297,305.742 351.280 L 302.344 354.751 297.951 354.751 C 293.627 354.751,293.553 354.737,293.150 353.853 C 292.925 353.359,292.448 352.862,292.090 352.749 C 291.732 352.635,291.347 352.249,291.233 351.892 C 291.120 351.534,290.623 351.057,290.129 350.832 C 289.426 350.512,289.231 350.152,289.231 349.177 C 289.231 348.076,288.788 347.490,285.430 344.148 C 282.466 341.198,281.629 340.149,281.629 339.383 C 281.629 338.632,280.946 337.731,278.733 335.566 C 276.179 333.066,275.837 332.578,275.837 331.434 C 275.837 330.720,275.660 330.136,275.443 330.136 C 274.519 330.136,270.045 325.015,270.045 323.958 C 270.045 323.222,269.662 322.565,268.747 321.729 C 267.513 320.602,264.936 318.054,263.999 317.035 C 263.760 316.774,263.312 316.351,263.004 316.094 C 262.696 315.838,262.443 315.134,262.443 314.532 C 262.443 313.636,261.912 312.921,259.548 310.631 C 257.311 308.466,256.652 307.601,256.652 306.833 C 256.652 306.071,256.016 305.222,253.937 303.202 C 251.697 301.027,251.222 300.367,251.222 299.431 C 251.222 298.626,250.964 298.128,250.331 297.714 C 249.841 297.392,249.344 296.827,249.226 296.457 C 249.109 296.087,248.704 295.686,248.326 295.566 C 247.948 295.446,247.551 295.069,247.443 294.729 C 247.335 294.389,246.878 293.950,246.429 293.752 C 245.835 293.492,245.581 293.035,245.501 292.085 C 245.393 290.786,240.475 285.192,238.524 284.148 C 238.041 283.890,237.828 283.388,237.828 282.511 C 237.828 281.409,237.455 280.879,234.932 278.393 L 232.036 275.539 232.036 270.512 C 232.036 265.018,232.172 264.615,234.019 264.615 C 234.804 264.615,235.415 264.294,236.086 263.529 L 237.039 262.443 248.837 262.443 L 260.636 262.443 260.544 207.692 L 260.452 152.941 246.740 152.846 L 233.028 152.751 231.627 151.350 L 230.226 149.949 230.226 145.576 C 230.226 141.641,230.296 141.165,230.918 140.832 C 232.408 140.034,233.846 138.230,233.846 137.159 C 233.846 136.341,234.311 135.642,235.837 134.164 C 237.324 132.724,237.828 131.977,237.828 131.215 C 237.828 130.412,238.445 129.604,240.724 127.421 C 243.026 125.216,243.620 124.434,243.620 123.609 C 243.620 122.831,244.074 122.145,245.430 120.872 C 246.831 119.556,247.240 118.924,247.240 118.074 C 247.240 117.031,248.014 115.837,248.689 115.837 C 248.861 115.837,249.092 115.550,249.204 115.199 C 249.315 114.848,250.222 113.914,251.219 113.124 C 252.744 111.916,253.032 111.497,253.032 110.483 C 253.032 109.453,253.454 108.865,255.928 106.447 C 258.193 104.232,258.824 103.394,258.824 102.596 C 258.824 101.839,259.291 101.136,260.633 99.876 C 262.043 98.553,262.443 97.931,262.443 97.066 C 262.443 96.456,262.686 95.746,262.981 95.489 C 266.553 92.391,268.235 90.459,268.235 89.458 C 268.235 88.431,269.014 87.240,269.685 87.240 C 269.856 87.240,270.097 86.922,270.220 86.534 C 270.344 86.146,270.762 85.728,271.150 85.605 C 271.669 85.440,271.855 85.052,271.855 84.139 C 271.855 83.068,272.256 82.495,274.751 80.000 C 276.827 77.925,277.647 76.848,277.647 76.199 C 277.647 75.551,278.468 74.474,280.543 72.398 C 282.797 70.144,283.439 69.275,283.439 68.479 C 283.439 67.703,283.920 67.011,285.430 65.615 C 287.016 64.149,287.421 63.548,287.421 62.657 C 287.421 61.541,289.725 58.643,290.612 58.643 C 290.821 58.643,291.093 58.325,291.216 57.937 C 291.339 57.549,291.757 57.131,292.145 57.008 C 292.533 56.885,292.851 56.636,292.851 56.456 C 292.851 56.275,293.588 55.390,294.489 54.489 L 296.128 52.851 299.943 52.851 C 302.041 52.851,304.073 53.019,304.458 53.225 " stroke="none" fill="#fcfcfc" fill-rule="evenodd"></path><path id="path3" d="M154.954 162.689 C 154.324 163.447,154.319 217.723,154.949 218.481 C 155.326 218.937,159.191 218.996,183.123 218.916 L 210.860 218.824 210.860 190.588 L 210.860 162.353 183.123 162.260 C 159.346 162.181,155.325 162.242,154.954 162.689 M205.207 168.095 C 205.504 168.452,205.591 174.697,205.523 190.810 L 205.430 213.032 183.208 213.125 C 167.095 213.193,160.850 213.106,160.493 212.809 C 159.696 212.147,159.769 168.971,160.569 168.171 C 161.369 167.371,204.546 167.297,205.207 168.095 M156.262 263.044 C 155.791 263.516,155.977 311.851,156.452 312.326 C 157.132 313.005,205.004 312.948,205.569 312.268 C 205.866 311.910,205.953 305.099,205.885 287.381 L 205.792 262.986 181.149 262.893 C 167.595 262.842,156.396 262.910,156.262 263.044 " stroke="none" fill="#ecc614" fill-rule="evenodd"></path><path id="path4" d="M297.352 75.461 C 297.030 75.951,296.457 76.451,296.076 76.571 C 295.568 76.733,295.385 77.129,295.385 78.066 C 295.385 79.147,295.082 79.621,293.394 81.181 C 291.874 82.586,291.403 83.266,291.403 84.056 C 291.403 84.865,290.809 85.678,288.688 87.771 C 286.536 89.895,285.973 90.671,285.973 91.513 C 285.973 92.343,285.540 92.958,283.984 94.341 C 282.352 95.792,281.995 96.318,281.993 97.277 C 281.992 98.122,281.741 98.609,281.086 99.038 C 280.588 99.364,280.181 99.789,280.181 99.983 C 280.181 100.177,279.285 101.164,278.190 102.176 C 276.660 103.590,276.199 104.259,276.199 105.063 C 276.199 105.892,275.635 106.653,273.484 108.721 C 271.305 110.817,270.769 111.545,270.766 112.408 C 270.764 113.250,270.331 113.876,268.775 115.286 C 267.248 116.671,266.787 117.329,266.787 118.125 C 266.787 118.940,266.168 119.776,263.891 122.035 C 261.521 124.386,260.995 125.109,260.995 126.022 C 260.995 126.891,260.598 127.510,259.186 128.835 C 257.909 130.034,257.376 130.813,257.376 131.480 C 257.376 132.145,256.788 133.009,255.397 134.389 C 252.637 137.127,252.778 137.195,261.207 137.195 L 268.152 137.195 268.745 138.100 C 269.149 138.716,269.668 139.005,270.374 139.005 C 271.157 139.005,271.992 139.571,273.804 141.330 L 276.199 143.655 276.199 208.680 L 276.199 273.705 273.784 276.038 L 271.370 278.371 263.637 278.371 C 255.221 278.371,254.365 278.590,256.430 280.213 C 257.065 280.713,257.376 281.306,257.376 282.017 C 257.376 282.882,258.072 283.765,261.176 286.836 C 264.195 289.821,264.977 290.803,264.977 291.605 C 264.977 292.392,265.614 293.227,267.873 295.406 C 270.078 297.532,270.769 298.430,270.769 299.169 C 270.769 300.082,272.764 302.965,273.406 302.980 C 274.197 302.998,276.199 305.567,276.199 306.563 C 276.199 307.415,276.784 308.215,279.095 310.522 C 281.301 312.725,281.991 313.650,281.991 314.402 C 281.991 315.181,282.797 316.174,285.792 319.087 C 288.849 322.060,289.593 322.983,289.593 323.806 C 289.593 324.607,290.222 325.445,292.489 327.667 C 294.643 329.778,295.385 330.747,295.385 331.449 C 295.385 332.066,295.881 332.889,296.817 333.826 L 298.250 335.258 299.532 333.976 C 300.385 333.124,300.814 332.357,300.814 331.689 C 300.814 330.907,301.455 330.068,303.710 327.899 C 305.303 326.367,306.606 324.959,306.606 324.771 C 306.606 324.582,307.014 324.160,307.511 323.834 C 308.131 323.428,308.416 322.912,308.416 322.195 C 308.416 321.369,309.027 320.538,311.312 318.256 C 313.536 316.035,314.208 315.132,314.208 314.363 C 314.208 313.585,314.851 312.746,317.104 310.588 C 319.355 308.432,320.000 307.592,320.000 306.815 C 320.000 306.046,320.669 305.152,322.896 302.943 C 325.255 300.603,325.792 299.865,325.792 298.966 C 325.792 297.811,325.815 297.784,330.990 292.966 C 332.976 291.116,333.394 290.529,333.394 289.582 C 333.394 288.622,333.865 287.983,336.290 285.654 C 338.618 283.418,339.186 282.664,339.186 281.812 C 339.186 281.097,339.500 280.501,340.149 279.983 C 341.950 278.547,341.145 278.371,332.739 278.368 L 324.887 278.366 323.348 276.799 L 321.810 275.232 321.810 209.596 L 321.810 143.959 324.244 141.482 C 326.235 139.456,326.887 139.005,327.822 139.005 C 328.643 139.005,329.134 138.749,329.559 138.100 L 330.152 137.195 337.214 137.195 C 344.943 137.195,345.963 136.900,343.769 135.302 C 343.085 134.804,342.805 134.276,342.805 133.482 C 342.805 132.558,342.302 131.878,339.910 129.571 C 337.660 127.401,337.014 126.555,337.014 125.776 C 337.014 125.005,336.388 124.167,334.299 122.137 C 332.120 120.021,331.584 119.288,331.584 118.424 C 331.584 117.600,331.117 116.885,329.593 115.372 C 328.187 113.978,327.602 113.118,327.602 112.448 C 327.602 111.740,326.864 110.770,324.706 108.641 C 322.504 106.469,321.810 105.549,321.810 104.805 C 321.810 104.104,321.296 103.330,320.000 102.081 C 318.650 100.780,318.190 100.072,318.190 99.293 C 318.190 98.462,317.598 97.677,315.294 95.451 C 312.973 93.209,312.398 92.444,312.398 91.596 C 312.398 90.536,308.591 86.214,307.180 85.673 C 306.803 85.528,306.606 85.004,306.606 84.142 C 306.606 83.042,306.314 82.549,304.796 81.086 C 303.500 79.836,302.986 79.064,302.986 78.361 C 302.986 75.775,298.619 73.527,297.352 75.461 " stroke="none" fill="#9cdcec" fill-rule="evenodd"></path><path id="path5" d="M112.308 24.887 C 160.041 24.937,238.149 24.937,285.882 24.887 C 333.615 24.836,294.561 24.795,199.095 24.795 C 103.629 24.795,64.575 24.836,112.308 24.887 M24.778 38.190 C 24.778 45.158,24.827 47.958,24.886 44.411 C 24.946 40.864,24.946 35.163,24.886 31.741 C 24.827 28.320,24.778 31.222,24.778 38.190 M373.376 38.190 C 373.376 45.158,373.424 47.958,373.484 44.411 C 373.543 40.864,373.543 35.163,373.483 31.741 C 373.424 28.320,373.376 31.222,373.376 38.190 M168.597 79.547 C 176.014 79.602,188.149 79.602,195.566 79.547 C 202.982 79.493,196.914 79.448,182.081 79.448 C 167.249 79.448,161.181 79.493,168.597 79.547 M210.127 107.692 C 210.127 122.425,210.171 128.400,210.226 120.969 C 210.281 113.538,210.281 101.483,210.226 94.181 C 210.171 86.879,210.127 92.959,210.127 107.692 M103.050 110.679 C 112.243 110.732,127.392 110.732,136.715 110.679 C 146.037 110.625,138.516 110.581,120.000 110.581 C 101.484 110.581,93.856 110.625,103.050 110.679 M168.597 136.018 C 176.014 136.073,188.149 136.073,195.566 136.018 C 202.982 135.963,196.914 135.919,182.081 135.919 C 167.249 135.919,161.181 135.963,168.597 136.018 M154.244 161.947 C 153.650 162.663,153.648 218.511,154.243 219.227 C 155.007 220.148,211.256 219.954,211.752 219.028 C 212.271 218.058,212.271 163.118,211.752 162.148 C 211.257 161.224,155.008 161.028,154.244 161.947 M210.860 190.588 L 210.860 218.824 183.123 218.916 C 159.191 218.996,155.326 218.937,154.949 218.481 C 154.319 217.723,154.324 163.447,154.954 162.689 C 155.325 162.242,159.346 162.181,183.123 162.260 L 210.860 162.353 210.860 190.588 M160.569 168.171 C 159.769 168.971,159.696 212.147,160.493 212.809 C 160.850 213.106,167.095 213.193,183.208 213.125 L 205.430 213.032 205.523 190.810 C 205.591 174.697,205.504 168.452,205.207 168.095 C 204.546 167.297,161.369 167.371,160.569 168.171 M150.433 257.220 C 149.937 257.716,149.864 259.454,149.864 270.795 L 149.864 283.801 118.100 283.888 L 86.335 283.976 118.371 284.160 C 146.616 284.322,150.436 284.280,150.653 283.801 C 150.789 283.502,150.911 277.516,150.925 270.498 L 150.950 257.738 180.995 257.738 L 211.041 257.738 211.041 287.783 L 211.041 317.828 180.995 317.828 L 150.950 317.828 150.925 305.973 C 150.900 294.371,150.779 292.612,150.045 293.135 C 149.401 293.595,149.925 318.141,150.588 318.560 C 151.636 319.221,210.890 319.013,211.558 318.345 C 212.425 317.478,212.425 258.088,211.558 257.220 C 210.690 256.353,151.301 256.353,150.433 257.220 " stroke="none" fill="#ece4b4" fill-rule="evenodd"></path><path id="path6" d="M155.091 80.760 C 154.779 81.264,154.794 134.144,155.106 134.648 C 155.536 135.345,208.743 135.150,209.011 134.450 C 209.298 133.702,209.298 81.683,209.011 80.935 C 208.734 80.214,155.535 80.041,155.091 80.760 M203.367 86.226 C 203.994 86.853,203.994 128.531,203.367 129.158 C 202.739 129.786,161.062 129.786,160.434 129.158 C 159.807 128.531,159.807 86.853,160.434 86.226 C 161.062 85.599,202.739 85.599,203.367 86.226 " stroke="none" fill="#24b44c" fill-rule="evenodd"></path><path id="path7" d="M160.434 86.226 C 159.807 86.853,159.807 128.531,160.434 129.158 C 161.062 129.786,202.739 129.786,203.367 129.158 C 203.994 128.531,203.994 86.853,203.367 86.226 C 202.739 85.599,161.062 85.599,160.434 86.226 " stroke="none" fill="#b5e61d" fill-rule="evenodd"></path><path id="path8" d="M150.885 273.322 C 150.799 281.893,150.799 295.413,150.885 303.367 L 151.043 317.828 181.042 317.828 L 211.041 317.828 211.041 287.783 L 211.041 257.738 181.042 257.738 L 151.043 257.738 150.885 273.322 M205.885 287.381 C 205.953 305.099,205.866 311.910,205.569 312.268 C 205.004 312.948,157.132 313.005,156.452 312.326 C 155.977 311.851,155.791 263.516,156.262 263.044 C 156.396 262.910,167.595 262.842,181.149 262.893 L 205.792 262.986 205.885 287.381 " stroke="none" fill="#ff7f27" fill-rule="evenodd"></path></g></svg>