<svg id="svg" version="1.1" xmlns="http://www.w3.org/2000/svg" xmlns:xlink="http://www.w3.org/1999/xlink" width="400" height="361.90476190476187" viewBox="0, 0, 400,361.90476190476187"><g id="svgg"><path id="path0" d="M0.000 180.995 L 0.000 361.991 150.407 361.991 C 246.001 361.991,300.814 361.865,300.814 361.644 C 300.814 360.785,290.274 350.769,289.370 350.769 C 288.418 350.769,286.990 349.560,282.406 344.870 C 281.083 343.516,279.309 341.724,278.465 340.888 C 277.621 340.051,275.503 337.927,273.759 336.168 C 272.015 334.409,269.880 332.291,269.015 331.462 C 265.290 327.893,261.231 323.740,260.730 322.986 C 260.345 322.408,259.832 322.172,258.960 322.172 C 257.826 322.172,256.710 321.148,244.542 308.959 C 233.838 298.236,231.173 295.747,230.395 295.747 C 229.691 295.747,228.775 295.080,226.936 293.230 L 224.434 290.714 224.434 285.967 C 224.434 280.502,224.656 279.819,226.430 279.819 C 227.359 279.819,227.826 279.589,228.269 278.914 L 228.862 278.009 246.304 278.009 C 259.388 278.009,263.855 277.900,264.181 277.575 C 264.813 276.943,264.813 161.428,264.181 160.796 C 263.857 160.472,259.861 160.362,248.434 160.362 L 233.122 160.362 231.674 158.914 L 230.226 157.466 230.226 153.386 L 230.226 149.306 232.214 147.504 C 233.768 146.095,234.203 145.467,234.205 144.628 C 234.208 143.547,234.577 143.048,237.242 140.519 C 241.670 136.318,241.810 136.149,241.810 135.010 C 241.810 134.058,242.397 133.309,245.611 130.161 C 248.626 127.207,249.412 126.230,249.412 125.435 C 249.412 124.661,250.030 123.838,252.127 121.821 C 254.245 119.784,254.842 118.986,254.842 118.190 C 254.842 117.373,255.597 116.429,258.643 113.442 C 261.805 110.340,262.443 109.531,262.443 108.622 C 262.443 107.476,262.901 106.948,268.006 102.202 C 269.988 100.360,270.407 99.771,270.407 98.828 C 270.407 97.854,270.971 97.133,274.208 93.962 C 277.236 90.995,278.009 90.033,278.009 89.229 C 278.009 88.424,278.781 87.464,281.810 84.500 C 284.803 81.571,285.611 80.571,285.611 79.791 C 285.611 79.035,286.252 78.179,288.326 76.165 C 290.528 74.025,291.041 73.321,291.041 72.430 C 291.041 71.606,291.440 70.944,292.640 69.783 C 298.705 63.915,298.643 63.986,298.643 62.879 C 298.643 62.030,299.087 61.368,300.671 59.858 C 302.025 58.568,302.537 57.863,302.210 57.738 C 301.940 57.636,251.059 57.594,189.140 57.645 L 76.561 57.738 76.561 100.090 L 76.561 142.443 92.579 142.538 L 108.597 142.632 108.597 121.343 C 108.597 105.268,108.704 99.948,109.032 99.620 C 109.663 98.989,214.319 98.989,214.950 99.620 C 215.411 100.080,215.622 203.847,215.165 205.038 C 214.828 205.916,109.154 205.916,108.817 205.038 C 108.696 204.723,108.597 197.166,108.597 188.244 C 108.597 173.787,108.535 171.999,108.025 171.803 C 106.855 171.355,77.275 171.558,76.814 172.018 C 76.130 172.703,76.189 267.626,76.875 268.195 C 77.230 268.490,81.497 268.579,91.988 268.511 L 106.606 268.416 106.787 243.982 L 106.968 219.548 160.883 219.456 C 203.776 219.383,214.856 219.457,215.085 219.818 C 215.589 220.610,215.455 328.835,214.950 329.339 C 214.274 330.016,107.759 329.966,107.197 329.289 C 106.918 328.952,106.766 323.721,106.701 312.185 L 106.606 295.566 91.988 295.471 C 81.497 295.403,77.230 295.492,76.875 295.787 C 76.465 296.127,76.380 300.790,76.380 323.049 C 76.380 343.451,76.276 350.005,75.946 350.335 C 75.317 350.963,23.868 350.963,23.240 350.335 C 22.903 349.998,22.805 317.062,22.805 204.301 C 22.805 124.221,22.707 58.444,22.586 58.129 C 22.395 57.631,21.339 57.557,14.497 57.557 C 7.333 57.557,6.574 57.497,6.029 56.895 C 5.307 56.097,5.093 11.442,5.805 10.112 C 6.395 9.008,391.795 9.008,392.385 10.112 C 393.151 11.542,392.877 56.253,392.098 56.957 C 391.491 57.507,388.333 57.557,354.089 57.557 C 330.180 57.557,316.742 57.683,316.742 57.908 C 316.742 58.101,317.557 59.053,318.552 60.022 C 319.855 61.291,320.362 62.063,320.362 62.777 C 320.362 63.541,321.027 64.416,323.258 66.585 C 325.497 68.762,326.154 69.626,326.154 70.398 C 326.154 71.187,326.951 72.182,329.955 75.138 C 333.147 78.281,333.756 79.058,333.756 79.993 C 333.756 81.024,335.807 83.408,338.991 86.078 C 339.297 86.334,339.548 87.036,339.548 87.638 C 339.548 88.523,340.065 89.234,342.262 91.368 C 344.323 93.370,344.977 94.241,344.977 94.985 C 344.977 95.750,345.812 96.790,348.778 99.720 C 351.767 102.673,352.579 103.687,352.579 104.467 C 352.579 105.231,353.245 106.108,355.475 108.279 C 357.715 110.459,358.371 111.324,358.371 112.097 C 358.371 112.647,358.689 113.428,359.079 113.833 C 359.468 114.239,360.771 115.563,361.975 116.777 C 363.554 118.370,364.163 119.254,364.163 119.951 C 364.163 120.700,365.021 121.764,367.964 124.664 C 370.937 127.595,371.765 128.624,371.765 129.393 C 371.765 130.145,372.443 131.035,374.661 133.191 C 377.059 135.523,377.557 136.200,377.557 137.135 C 377.557 137.977,377.893 138.564,378.883 139.448 C 382.445 142.632,383.348 143.723,383.348 144.845 C 383.348 145.715,383.746 146.333,385.158 147.659 L 386.968 149.358 386.968 153.455 L 386.968 157.551 385.563 158.957 L 384.158 160.362 367.683 160.362 C 352.995 160.362,351.185 160.424,350.989 160.935 C 350.531 162.127,350.743 277.114,351.204 277.575 C 351.528 277.899,355.531 278.009,366.984 278.009 L 382.329 278.009 384.649 280.328 L 386.968 282.648 386.968 286.801 L 386.968 290.953 385.539 292.355 C 380.691 297.107,380.147 297.557,379.246 297.557 C 378.501 297.557,375.609 300.261,364.921 310.950 C 354.288 321.585,351.338 324.344,350.603 324.344 C 349.867 324.344,346.756 327.269,335.396 338.643 C 323.875 350.178,320.932 352.941,320.168 352.941 C 319.209 352.941,310.950 360.701,310.950 361.602 C 310.950 361.877,323.976 361.991,355.475 361.991 L 400.000 361.991 400.000 180.995 L 400.000 0.000 200.000 0.000 L 0.000 0.000 0.000 180.995 " stroke="none" fill="#fcfcfc" fill-rule="evenodd"></path><path id="path1" d="M109.001 99.678 C 108.560 100.209,108.375 203.886,108.812 205.026 C 109.153 205.915,214.824 205.927,215.165 205.038 C 215.622 203.847,215.411 100.080,214.950 99.620 C 214.267 98.937,109.569 98.994,109.001 99.678 M106.476 281.991 C 106.476 289.881,106.607 295.262,106.787 294.842 C 106.958 294.443,107.098 288.661,107.098 281.991 C 107.098 275.321,106.958 269.538,106.787 269.140 C 106.607 268.719,106.476 274.101,106.476 281.991 " stroke="none" fill="#ff7f27" fill-rule="evenodd"></path><path id="path2" d="M304.730 56.380 C 304.220 56.928,303.697 57.829,303.566 58.384 C 303.422 58.993,302.974 59.527,302.433 59.732 C 301.941 59.919,301.538 60.325,301.538 60.633 C 301.538 60.942,301.141 61.346,300.655 61.530 C 299.938 61.803,299.751 62.158,299.660 63.422 C 299.574 64.614,299.362 65.059,298.753 65.326 C 298.316 65.518,297.865 66.047,297.751 66.503 C 297.627 66.995,297.269 67.330,296.868 67.330 C 296.497 67.330,296.108 67.654,296.005 68.050 C 295.901 68.446,295.416 68.922,294.926 69.108 C 294.436 69.294,293.944 69.797,293.832 70.225 C 293.720 70.654,293.291 71.092,292.878 71.200 C 292.309 71.349,292.127 71.687,292.127 72.592 C 292.127 74.235,291.803 74.932,291.041 74.932 C 290.654 74.932,290.304 75.295,290.168 75.837 C 290.027 76.399,289.684 76.742,289.263 76.742 C 288.843 76.742,288.499 77.084,288.360 77.642 C 288.220 78.196,287.789 78.627,287.234 78.767 C 286.446 78.965,286.335 79.190,286.335 80.591 C 286.335 81.963,286.207 82.239,285.430 82.534 C 284.932 82.723,284.525 83.130,284.525 83.438 C 284.525 83.746,284.121 84.182,283.627 84.407 C 283.133 84.632,282.633 85.116,282.517 85.484 C 282.400 85.851,281.908 86.252,281.424 86.373 C 280.874 86.511,280.543 86.855,280.543 87.288 C 280.543 87.690,280.172 88.123,279.660 88.318 C 278.942 88.590,278.755 88.946,278.664 90.209 C 278.578 91.400,278.366 91.846,277.760 92.112 C 277.324 92.304,276.888 92.764,276.791 93.135 C 276.694 93.506,276.282 93.896,275.876 94.003 C 275.470 94.109,275.036 94.513,274.913 94.901 C 274.790 95.290,274.296 95.757,273.815 95.939 C 273.334 96.122,272.941 96.524,272.941 96.833 C 272.941 97.141,272.534 97.548,272.036 97.738 C 271.256 98.034,271.131 98.306,271.131 99.713 C 271.131 101.135,271.019 101.372,270.258 101.563 C 269.737 101.694,269.295 102.135,269.165 102.656 C 269.031 103.188,268.682 103.529,268.271 103.529 C 267.899 103.529,267.511 103.853,267.408 104.249 C 267.304 104.645,266.819 105.121,266.329 105.307 C 265.839 105.493,265.347 105.996,265.235 106.424 C 265.123 106.853,264.693 107.291,264.280 107.399 C 263.712 107.548,263.529 107.886,263.529 108.791 C 263.529 110.351,263.212 111.131,262.577 111.131 C 262.294 111.131,261.909 111.538,261.719 112.036 C 261.518 112.567,261.089 112.941,260.682 112.941 C 260.245 112.941,259.904 113.274,259.762 113.841 C 259.623 114.396,259.192 114.827,258.637 114.966 C 258.080 115.106,257.738 115.449,257.738 115.869 C 257.738 116.291,257.395 116.633,256.833 116.774 C 256.038 116.974,255.928 117.197,255.928 118.599 C 255.928 119.948,255.788 120.260,255.030 120.606 C 254.536 120.831,254.039 121.308,253.925 121.665 C 253.812 122.023,253.409 122.414,253.032 122.534 C 252.654 122.654,252.241 123.079,252.114 123.478 C 251.987 123.878,251.500 124.350,251.031 124.528 C 250.349 124.788,250.157 125.162,250.067 126.408 C 249.981 127.599,249.769 128.045,249.163 128.312 C 248.727 128.503,248.291 128.963,248.194 129.334 C 248.097 129.705,247.685 130.095,247.279 130.202 C 246.872 130.308,246.439 130.712,246.316 131.101 C 246.193 131.489,245.699 131.956,245.218 132.138 C 244.737 132.321,244.344 132.723,244.344 133.032 C 244.344 133.340,243.937 133.747,243.439 133.937 C 242.658 134.233,242.534 134.505,242.534 135.912 C 242.534 137.334,242.422 137.571,241.660 137.762 C 241.140 137.893,240.698 138.334,240.567 138.855 C 240.434 139.388,240.085 139.729,239.673 139.729 C 239.302 139.729,238.914 140.052,238.810 140.448 C 238.707 140.844,238.221 141.320,237.732 141.506 C 237.242 141.693,236.749 142.195,236.637 142.624 C 236.525 143.052,236.096 143.491,235.683 143.598 C 235.066 143.760,234.932 144.080,234.932 145.391 C 234.932 146.735,234.797 147.037,234.077 147.312 C 233.606 147.490,233.133 147.975,233.025 148.389 C 232.905 148.848,232.533 149.140,232.070 149.140 C 230.776 149.140,230.913 157.168,232.217 157.762 C 232.715 157.989,233.122 158.422,233.122 158.725 C 233.122 159.210,235.010 159.276,248.824 159.276 C 261.600 159.276,264.603 159.368,264.934 159.767 C 265.233 160.127,265.317 175.990,265.250 219.405 L 265.158 278.552 247.318 278.733 L 229.478 278.914 229.029 279.819 C 228.674 280.536,228.262 280.747,227.050 280.835 L 225.520 280.947 225.520 285.847 C 225.520 290.451,225.564 290.758,226.248 290.937 C 226.649 291.042,227.070 291.501,227.185 291.958 C 227.301 292.420,227.761 292.880,228.223 292.996 C 228.680 293.111,229.137 293.522,229.238 293.910 C 229.379 294.448,229.797 294.642,231.001 294.728 C 232.215 294.815,232.659 295.025,232.927 295.634 C 233.118 296.070,233.564 296.502,233.918 296.594 C 234.272 296.687,234.722 297.186,234.919 297.703 C 235.115 298.220,235.529 298.643,235.837 298.643 C 236.146 298.643,236.553 299.050,236.742 299.548 C 236.931 300.045,237.338 300.452,237.646 300.452 C 237.954 300.452,238.383 300.842,238.600 301.318 C 238.816 301.793,239.383 302.360,239.859 302.577 C 240.335 302.794,240.724 303.200,240.724 303.479 C 240.724 303.759,241.048 304.073,241.444 304.176 C 241.839 304.280,242.324 304.787,242.521 305.304 C 242.717 305.821,243.130 306.244,243.439 306.244 C 243.747 306.244,244.155 306.652,244.344 307.149 C 244.533 307.647,244.940 308.054,245.248 308.054 C 245.556 308.054,245.985 308.444,246.202 308.919 C 246.418 309.395,246.985 309.962,247.461 310.179 C 247.937 310.395,248.326 310.825,248.326 311.132 C 248.326 311.440,248.733 311.847,249.231 312.036 C 249.729 312.225,250.136 312.633,250.136 312.941 C 250.136 313.250,250.559 313.663,251.076 313.859 C 251.593 314.056,252.100 314.541,252.204 314.936 C 252.307 315.332,252.621 315.656,252.901 315.656 C 253.180 315.656,253.593 316.060,253.818 316.554 C 254.043 317.048,254.538 317.551,254.917 317.671 C 255.297 317.791,255.757 318.283,255.939 318.764 C 256.122 319.245,256.524 319.638,256.833 319.638 C 257.141 319.638,257.548 320.045,257.738 320.543 C 258.034 321.323,258.306 321.448,259.713 321.448 C 261.133 321.448,261.372 321.560,261.562 322.319 C 261.682 322.798,262.105 323.274,262.501 323.378 C 262.897 323.481,263.306 323.889,263.409 324.284 C 263.512 324.678,263.905 325.082,264.283 325.180 C 264.660 325.279,265.121 325.761,265.307 326.250 C 265.493 326.740,265.996 327.232,266.424 327.344 C 266.853 327.456,267.287 327.871,267.391 328.265 C 267.494 328.660,267.901 329.067,268.296 329.170 C 268.690 329.274,269.098 329.682,269.201 330.078 C 269.305 330.474,269.782 330.897,270.260 331.017 C 270.791 331.150,271.131 331.499,271.131 331.910 C 271.131 332.282,271.455 332.670,271.851 332.773 C 272.247 332.877,272.723 333.362,272.909 333.852 C 273.095 334.342,273.598 334.834,274.026 334.946 C 274.454 335.058,274.889 335.473,274.992 335.867 C 275.096 336.262,275.503 336.669,275.897 336.772 C 276.292 336.875,276.699 337.283,276.802 337.677 C 276.906 338.072,277.313 338.479,277.707 338.582 C 278.102 338.685,278.509 339.093,278.612 339.487 C 278.716 339.882,279.109 340.285,279.486 340.384 C 279.864 340.483,280.325 340.964,280.511 341.454 C 280.697 341.944,281.200 342.436,281.628 342.548 C 282.056 342.660,282.491 343.075,282.594 343.469 C 282.697 343.864,283.105 344.271,283.499 344.374 C 283.894 344.477,284.301 344.884,284.404 345.279 C 284.507 345.674,284.901 346.077,285.278 346.176 C 285.655 346.275,286.125 346.778,286.322 347.295 C 286.542 347.876,286.956 348.235,287.405 348.235 C 287.878 348.235,288.210 348.551,288.358 349.140 C 288.557 349.933,288.782 350.045,290.168 350.045 C 291.539 350.045,291.780 350.162,291.970 350.919 C 292.101 351.439,292.543 351.881,293.063 352.012 C 293.597 352.146,293.937 352.494,293.937 352.909 C 293.937 353.329,294.279 353.673,294.836 353.812 C 295.391 353.952,295.822 354.383,295.961 354.938 C 296.101 355.495,296.445 355.837,296.865 355.837 C 297.286 355.837,297.629 356.180,297.770 356.742 C 297.911 357.304,298.254 357.647,298.675 357.647 C 299.090 357.647,299.438 357.986,299.572 358.521 C 299.703 359.041,300.144 359.483,300.665 359.614 C 301.344 359.784,301.538 360.073,301.538 360.912 L 301.538 361.991 305.677 361.991 L 309.816 361.991 309.931 360.995 C 310.000 360.390,310.356 359.864,310.837 359.652 C 311.273 359.461,311.709 359.001,311.806 358.630 C 311.903 358.259,312.333 357.864,312.761 357.752 C 313.189 357.640,313.686 357.163,313.865 356.693 C 314.044 356.222,314.443 355.837,314.751 355.837 C 315.060 355.837,315.473 355.414,315.669 354.897 C 315.866 354.380,316.316 353.881,316.670 353.789 C 317.024 353.696,317.470 353.264,317.661 352.828 C 317.928 352.222,318.374 352.010,319.565 351.924 C 320.828 351.833,321.183 351.646,321.456 350.929 C 321.641 350.443,322.044 350.045,322.353 350.045 C 322.661 350.045,323.069 349.638,323.258 349.140 C 323.447 348.643,323.854 348.235,324.163 348.235 C 324.471 348.235,324.873 347.842,325.056 347.361 C 325.239 346.881,325.715 346.384,326.115 346.257 C 326.514 346.130,326.945 345.700,327.071 345.300 C 327.198 344.901,327.695 344.424,328.176 344.242 C 328.656 344.059,329.050 343.657,329.050 343.348 C 329.050 343.040,329.457 342.633,329.955 342.443 C 330.452 342.254,330.860 341.847,330.860 341.540 C 330.860 341.232,331.264 340.796,331.758 340.571 C 332.252 340.346,332.749 339.869,332.862 339.511 C 332.976 339.153,333.378 338.762,333.756 338.643 C 334.133 338.523,334.546 338.098,334.673 337.698 C 334.800 337.299,335.297 336.823,335.778 336.640 C 336.258 336.457,336.652 336.055,336.652 335.747 C 336.652 335.438,337.059 335.031,337.557 334.842 C 338.054 334.652,338.462 334.246,338.462 333.938 C 338.462 333.630,338.851 333.201,339.327 332.984 C 339.802 332.767,340.369 332.201,340.586 331.725 C 340.803 331.249,341.217 330.860,341.506 330.860 C 341.796 330.860,342.139 330.525,342.269 330.115 C 342.399 329.705,342.899 329.221,343.379 329.038 C 343.860 328.855,344.253 328.453,344.253 328.145 C 344.253 327.836,344.661 327.429,345.158 327.240 C 345.656 327.051,346.063 326.644,346.063 326.336 C 346.063 326.028,346.453 325.599,346.928 325.382 C 347.404 325.165,347.971 324.599,348.188 324.123 C 348.509 323.418,348.853 323.258,350.046 323.258 C 351.276 323.258,351.566 323.112,351.855 322.353 C 352.044 321.855,352.451 321.448,352.759 321.448 C 353.067 321.448,353.504 321.041,353.731 320.543 C 353.958 320.045,354.425 319.638,354.770 319.638 C 355.135 319.638,355.491 319.263,355.622 318.739 C 355.762 318.184,356.193 317.753,356.748 317.613 C 357.305 317.473,357.647 317.130,357.647 316.710 C 357.647 316.295,357.986 315.947,358.521 315.813 C 359.041 315.682,359.483 315.240,359.614 314.720 C 359.734 314.239,360.078 313.846,360.378 313.846 C 360.678 313.846,361.078 313.439,361.267 312.941 C 361.469 312.410,361.898 312.036,362.305 312.036 C 362.742 312.036,363.082 311.703,363.224 311.137 C 363.363 310.582,363.795 310.151,364.349 310.012 C 364.907 309.872,365.249 309.528,365.249 309.108 C 365.249 308.693,365.588 308.345,366.122 308.211 C 366.643 308.080,367.085 307.638,367.215 307.118 C 367.355 306.562,367.696 306.244,368.152 306.244 C 368.630 306.244,368.869 306.001,368.869 305.513 C 368.869 305.085,369.242 304.611,369.767 304.372 C 370.261 304.147,370.760 303.662,370.877 303.294 C 370.994 302.927,371.485 302.527,371.970 302.405 C 372.511 302.269,372.851 301.922,372.851 301.506 C 372.851 301.091,373.190 300.743,373.724 300.609 C 374.245 300.478,374.687 300.037,374.817 299.516 C 374.957 298.960,375.297 298.643,375.754 298.643 C 376.148 298.643,376.471 298.410,376.471 298.125 C 376.471 297.184,377.574 296.471,379.030 296.471 C 380.207 296.471,380.452 296.347,380.452 295.754 C 380.452 295.298,380.770 294.957,381.323 294.818 C 381.802 294.698,382.279 294.275,382.382 293.879 C 382.486 293.483,382.894 293.075,383.288 292.971 C 383.683 292.868,384.086 292.475,384.185 292.098 C 384.284 291.720,384.787 291.251,385.304 291.054 C 386.726 290.514,386.783 283.264,385.370 282.727 C 384.890 282.544,384.393 282.068,384.266 281.668 C 384.139 281.269,383.709 280.838,383.309 280.712 C 382.910 280.585,382.434 280.089,382.252 279.611 L 381.921 278.741 366.074 278.646 L 350.226 278.552 350.135 219.405 C 350.067 175.990,350.151 160.127,350.450 159.767 C 350.783 159.367,353.924 159.276,367.441 159.276 C 383.699 159.276,384.028 159.262,384.253 158.553 C 384.379 158.155,384.884 157.729,385.375 157.606 C 386.709 157.271,386.591 149.396,385.249 149.206 C 384.742 149.134,384.353 148.759,384.215 148.210 C 384.084 147.690,383.730 147.330,383.348 147.330 C 382.586 147.330,382.262 146.633,382.262 144.990 C 382.262 144.102,382.078 143.747,381.543 143.607 C 381.147 143.503,380.671 143.018,380.485 142.528 C 380.298 142.038,379.796 141.546,379.367 141.434 C 378.939 141.322,378.509 140.927,378.412 140.556 C 378.315 140.185,377.879 139.725,377.444 139.533 C 376.842 139.269,376.625 138.820,376.541 137.665 C 376.458 136.519,376.252 136.088,375.706 135.915 C 375.307 135.788,374.832 135.291,374.649 134.811 C 374.466 134.330,374.064 133.937,373.756 133.937 C 373.447 133.937,373.040 133.529,372.851 133.032 C 372.661 132.534,372.264 132.127,371.967 132.127 C 371.268 132.127,370.679 131.005,370.679 129.675 C 370.679 128.904,370.437 128.513,369.774 128.211 C 369.243 127.969,368.869 127.496,368.869 127.067 C 368.869 126.579,368.630 126.335,368.152 126.335 C 367.696 126.335,367.355 126.017,367.215 125.461 C 367.085 124.941,366.643 124.499,366.122 124.368 C 365.567 124.229,365.249 123.888,365.249 123.432 C 365.249 123.038,365.016 122.715,364.732 122.715 C 363.790 122.715,363.077 121.611,363.077 120.155 C 363.077 118.979,362.953 118.733,362.360 118.733 C 361.904 118.733,361.563 118.415,361.424 117.862 C 361.304 117.383,360.882 116.907,360.485 116.803 C 360.089 116.700,359.686 116.311,359.589 115.940 C 359.492 115.569,359.056 115.109,358.620 114.918 C 358.014 114.652,357.802 114.205,357.716 113.014 C 357.624 111.733,357.442 111.397,356.685 111.110 C 356.180 110.918,355.686 110.452,355.588 110.074 C 355.489 109.697,355.085 109.304,354.691 109.201 C 354.296 109.097,353.894 108.709,353.797 108.338 C 353.700 107.967,353.264 107.507,352.828 107.316 C 352.222 107.050,352.010 106.604,351.924 105.413 C 351.833 104.149,351.646 103.794,350.929 103.521 C 350.443 103.336,350.045 102.933,350.045 102.624 C 350.045 102.316,349.652 101.914,349.171 101.731 C 348.691 101.548,348.199 101.089,348.078 100.709 C 347.958 100.330,347.455 99.835,346.961 99.610 C 346.467 99.385,346.063 98.949,346.063 98.641 C 346.063 98.333,345.656 97.927,345.158 97.738 C 344.399 97.449,344.253 97.158,344.253 95.928 C 344.253 94.711,344.105 94.405,343.379 94.129 C 342.899 93.947,342.402 93.470,342.275 93.071 C 342.148 92.672,341.727 92.244,341.340 92.121 C 340.952 91.998,340.536 91.501,340.414 91.017 C 340.283 90.495,339.929 90.136,339.547 90.136 C 338.785 90.136,338.462 89.439,338.462 87.795 C 338.462 86.890,338.279 86.553,337.711 86.404 C 337.298 86.296,336.875 85.883,336.772 85.487 C 336.668 85.091,336.194 84.669,335.718 84.550 C 335.226 84.426,334.764 83.979,334.646 83.511 C 334.533 83.059,334.082 82.532,333.645 82.340 C 333.045 82.076,332.824 81.627,332.742 80.502 C 332.656 79.330,332.444 78.927,331.746 78.610 C 331.259 78.387,330.860 77.954,330.860 77.646 C 330.860 77.338,330.452 76.931,329.955 76.742 C 329.457 76.553,329.050 76.146,329.050 75.837 C 329.050 75.529,328.627 75.115,328.110 74.919 C 327.593 74.722,327.094 74.272,327.002 73.918 C 326.909 73.564,326.477 73.118,326.041 72.927 C 325.432 72.659,325.223 72.215,325.136 71.001 C 325.052 69.840,324.849 69.377,324.365 69.251 C 324.004 69.156,323.529 68.685,323.310 68.205 C 323.091 67.724,322.660 67.330,322.352 67.330 C 322.044 67.330,321.637 66.923,321.448 66.425 C 321.259 65.928,320.861 65.520,320.565 65.520 C 319.824 65.520,319.276 64.375,319.276 62.829 C 319.276 61.784,319.140 61.538,318.559 61.538 C 318.103 61.538,317.762 61.221,317.623 60.665 C 317.492 60.144,317.050 59.703,316.530 59.572 C 315.962 59.430,315.656 59.093,315.656 58.611 C 315.656 58.204,315.230 57.311,314.708 56.627 L 313.760 55.385 309.708 55.385 C 305.753 55.385,305.634 55.409,304.730 56.380 M311.238 75.628 C 312.302 76.620,312.760 77.342,312.760 78.028 C 312.760 78.964,314.340 80.944,317.195 83.584 C 317.829 84.171,318.190 84.877,318.190 85.529 C 318.190 86.350,318.945 87.299,321.991 90.308 C 324.924 93.206,325.792 94.283,325.792 95.026 C 325.792 95.752,326.504 96.686,328.688 98.824 C 330.896 100.985,331.584 101.890,331.584 102.638 C 331.584 103.379,332.286 104.320,334.480 106.513 C 336.945 108.978,337.376 109.589,337.376 110.619 C 337.376 111.401,337.600 111.951,338.009 112.172 C 338.357 112.360,339.620 113.532,340.814 114.777 C 342.009 116.022,343.434 117.458,343.982 117.968 C 344.633 118.574,344.977 119.263,344.977 119.961 C 344.977 120.821,345.537 121.563,347.873 123.801 C 350.182 126.013,350.769 126.786,350.769 127.619 C 350.769 128.470,351.471 129.340,354.570 132.333 C 357.719 135.372,358.371 136.187,358.371 137.077 C 358.371 137.939,358.902 138.663,361.060 140.742 C 365.726 145.238,365.865 145.158,353.319 145.158 L 343.613 145.158 343.020 146.063 C 342.599 146.706,342.102 146.968,341.307 146.968 C 339.738 146.968,337.376 149.331,337.376 150.899 C 337.376 151.695,337.113 152.191,336.471 152.612 L 335.566 153.205 335.566 220.912 L 335.566 288.618 337.828 290.909 L 340.090 293.199 349.701 293.206 C 359.054 293.212,360.181 293.335,360.181 294.349 C 360.181 295.216,347.848 306.968,346.938 306.968 C 346.132 306.968,343.584 309.344,332.573 320.362 C 320.329 332.612,319.084 333.756,317.982 333.756 C 317.310 333.756,316.649 333.986,316.486 334.278 C 316.106 334.957,312.080 339.186,311.814 339.186 C 311.476 339.186,306.606 344.294,306.606 344.648 C 306.606 345.723,304.871 344.353,299.915 339.367 C 295.562 334.986,294.132 333.756,293.395 333.756 C 292.634 333.756,289.672 330.975,278.165 319.457 C 265.889 307.169,263.731 305.158,262.824 305.158 C 262.065 305.158,261.552 304.854,260.995 304.072 C 260.570 303.475,260.091 302.986,259.931 302.986 C 259.591 302.986,253.392 296.847,253.397 296.515 C 253.399 296.391,252.869 295.840,252.220 295.291 C 250.011 293.422,250.992 293.213,261.966 293.213 L 271.486 293.213 275.652 289.046 L 279.819 284.879 279.819 217.010 C 279.819 172.357,279.696 149.140,279.460 149.140 C 279.262 149.140,278.665 148.652,278.133 148.054 C 277.268 147.083,276.943 146.968,275.062 146.968 C 273.217 146.968,272.885 146.857,272.365 146.063 L 271.772 145.158 263.922 145.158 C 258.299 145.158,255.949 145.035,255.638 144.724 C 255.146 144.232,255.038 141.176,255.512 141.176 C 256.428 141.176,262.805 134.191,262.805 133.188 C 262.805 132.331,263.507 131.451,266.606 128.422 C 269.665 125.431,270.407 124.506,270.407 123.680 C 270.407 122.874,271.031 122.043,273.303 119.819 C 275.525 117.644,276.199 116.754,276.199 115.995 C 276.199 115.217,277.008 114.215,280.000 111.287 C 283.426 107.935,283.801 107.440,283.801 106.273 C 283.801 105.560,283.927 104.977,284.080 104.977 C 284.332 104.977,287.104 102.326,290.226 99.098 C 290.959 98.340,291.403 97.516,291.403 96.910 C 291.403 96.154,292.244 95.116,295.204 92.223 C 298.261 89.233,299.004 88.306,299.004 87.481 C 299.005 86.657,299.752 85.722,302.805 82.723 C 305.778 79.804,306.606 78.777,306.606 78.010 C 306.606 77.156,308.830 74.263,309.518 74.220 C 309.627 74.214,310.400 74.847,311.238 75.628 " stroke="none" fill="#314a6c" fill-rule="evenodd"></path><path id="path3" d="M5.805 10.112 C 5.039 11.542,5.313 56.253,6.092 56.957 C 6.665 57.476,7.804 57.557,14.560 57.557 C 21.344 57.557,22.395 57.632,22.586 58.129 C 22.707 58.444,22.805 124.221,22.805 204.301 C 22.805 317.062,22.903 349.998,23.240 350.335 C 23.868 350.963,75.317 350.963,75.946 350.335 C 76.276 350.005,76.380 343.457,76.380 323.077 C 76.380 302.697,76.484 296.149,76.814 295.819 C 77.138 295.495,80.978 295.385,91.858 295.385 C 101.506 295.385,106.392 295.262,106.244 295.023 C 105.832 294.355,77.426 294.548,76.461 295.224 L 75.656 295.788 75.656 322.916 L 75.656 350.045 49.593 350.045 L 23.529 350.045 23.529 204.051 C 23.529 87.822,23.437 57.933,23.077 57.448 C 22.680 56.915,21.620 56.828,14.480 56.746 L 6.335 56.652 6.335 33.484 L 6.335 10.317 199.095 10.317 L 391.855 10.317 391.855 33.484 L 391.855 56.652 354.129 56.744 C 310.570 56.850,313.841 56.539,317.636 60.214 C 319.113 61.645,319.638 62.416,319.638 63.154 C 319.638 63.930,320.286 64.779,322.534 66.947 C 324.868 69.198,325.430 69.947,325.430 70.807 C 325.430 71.500,325.779 72.209,326.425 72.827 C 327.359 73.719,327.686 74.051,328.788 75.221 C 329.275 75.738,329.496 75.948,331.595 77.890 C 332.653 78.869,333.032 79.505,333.032 80.302 C 333.032 81.406,336.297 85.189,338.068 86.137 C 338.615 86.430,338.824 86.894,338.824 87.819 C 338.824 88.929,339.179 89.447,341.538 91.776 C 343.489 93.702,344.253 94.713,344.253 95.368 C 344.253 96.042,345.245 97.276,348.054 100.099 C 351.143 103.203,351.855 104.117,351.855 104.977 C 351.855 105.559,352.109 106.245,352.419 106.502 C 353.877 107.708,356.199 110.098,356.199 110.392 C 356.199 110.573,356.525 110.824,356.923 110.950 C 357.445 111.116,357.649 111.501,357.653 112.332 C 357.659 113.693,357.909 114.133,359.005 114.710 C 359.452 114.946,359.819 115.313,359.819 115.526 C 359.819 115.740,360.633 116.679,361.629 117.614 C 362.950 118.854,363.439 119.582,363.439 120.309 C 363.439 121.093,364.245 122.100,367.240 125.060 C 370.173 127.957,371.041 129.035,371.041 129.777 C 371.041 130.504,371.753 131.437,373.937 133.575 C 376.269 135.858,376.833 136.618,376.833 137.483 C 376.833 138.499,379.288 141.538,380.109 141.538 C 380.271 141.538,380.499 141.840,380.616 142.208 C 380.733 142.575,381.233 143.061,381.726 143.286 C 382.435 143.609,382.624 143.964,382.624 144.969 C 382.624 146.253,384.851 149.140,385.840 149.140 C 386.113 149.140,386.244 150.434,386.244 153.134 L 386.244 157.128 384.989 158.383 L 383.735 159.638 367.459 159.638 C 353.145 159.638,351.114 159.707,350.614 160.207 C 349.749 161.072,349.743 276.693,350.609 277.929 L 351.172 278.733 366.536 278.733 L 381.900 278.733 384.072 280.905 L 386.244 283.077 386.244 287.034 C 386.244 290.572,386.173 291.015,385.572 291.205 C 385.202 291.323,384.754 291.725,384.577 292.100 C 384.399 292.475,383.522 293.387,382.627 294.127 C 381.733 294.868,380.787 295.780,380.525 296.153 C 380.242 296.558,379.616 296.833,378.977 296.833 C 378.049 296.833,376.110 298.631,364.539 310.226 C 353.798 320.990,350.989 323.620,350.232 323.620 C 349.474 323.620,346.502 326.413,335.016 337.919 C 323.011 349.945,320.581 352.217,319.728 352.217 C 319.093 352.217,318.357 352.590,317.762 353.213 C 317.238 353.760,316.616 354.395,316.378 354.624 C 315.818 355.164,313.173 357.809,312.633 358.369 C 312.405 358.606,311.769 359.229,311.222 359.753 C 310.244 360.687,309.875 361.991,310.588 361.991 C 310.787 361.991,310.950 361.816,310.950 361.602 C 310.950 360.701,319.209 352.941,320.168 352.941 C 320.932 352.941,323.875 350.178,335.396 338.643 C 346.756 327.269,349.867 324.344,350.603 324.344 C 351.338 324.344,354.288 321.585,364.921 310.950 C 375.609 300.261,378.501 297.557,379.246 297.557 C 380.147 297.557,380.691 297.107,385.539 292.355 L 386.968 290.953 386.968 286.801 L 386.968 282.648 384.649 280.328 L 382.329 278.009 366.984 278.009 C 355.531 278.009,351.528 277.899,351.204 277.575 C 350.743 277.114,350.531 162.127,350.989 160.935 C 351.185 160.424,352.995 160.362,367.683 160.362 L 384.158 160.362 385.563 158.957 L 386.968 157.551 386.968 153.455 L 386.968 149.358 385.158 147.659 C 383.746 146.333,383.348 145.715,383.348 144.845 C 383.348 143.723,382.445 142.632,378.883 139.448 C 377.893 138.564,377.557 137.977,377.557 137.135 C 377.557 136.200,377.059 135.523,374.661 133.191 C 372.443 131.035,371.765 130.145,371.765 129.393 C 371.765 128.624,370.937 127.595,367.964 124.664 C 365.021 121.764,364.163 120.700,364.163 119.951 C 364.163 119.254,363.554 118.370,361.975 116.777 C 360.771 115.563,359.468 114.239,359.079 113.833 C 358.689 113.428,358.371 112.647,358.371 112.097 C 358.371 111.324,357.715 110.459,355.475 108.279 C 353.245 106.108,352.579 105.231,352.579 104.467 C 352.579 103.687,351.767 102.673,348.778 99.720 C 345.812 96.790,344.977 95.750,344.977 94.985 C 344.977 94.241,344.323 93.370,342.262 91.368 C 340.065 89.234,339.548 88.523,339.548 87.638 C 339.548 87.036,339.297 86.334,338.991 86.078 C 335.807 83.408,333.756 81.024,333.756 79.993 C 333.756 79.058,333.147 78.281,329.955 75.138 C 326.951 72.182,326.154 71.187,326.154 70.398 C 326.154 69.626,325.497 68.762,323.258 66.585 C 321.027 64.416,320.362 63.541,320.362 62.777 C 320.362 62.063,319.855 61.291,318.552 60.022 C 317.557 59.053,316.742 58.101,316.742 57.908 C 316.742 57.683,330.202 57.557,354.152 57.557 C 389.934 57.557,391.588 57.528,392.161 56.895 C 392.883 56.097,393.097 11.442,392.385 10.112 C 391.795 9.008,6.395 9.008,5.805 10.112 M76.091 57.266 C 75.460 57.898,75.459 142.283,76.090 142.914 C 76.650 143.473,108.235 143.548,108.235 142.990 C 108.235 142.761,102.539 142.598,92.398 142.538 L 76.561 142.443 76.561 100.090 L 76.561 57.738 189.140 57.645 C 251.059 57.594,301.940 57.636,302.210 57.738 C 302.537 57.863,302.025 58.568,300.671 59.858 C 299.087 61.368,298.643 62.030,298.643 62.879 C 298.643 63.986,298.705 63.915,292.640 69.783 C 291.440 70.944,291.041 71.606,291.041 72.430 C 291.041 73.321,290.528 74.025,288.326 76.165 C 286.252 78.179,285.611 79.035,285.611 79.791 C 285.611 80.571,284.803 81.571,281.810 84.500 C 278.781 87.464,278.009 88.424,278.009 89.229 C 278.009 90.033,277.236 90.995,274.208 93.962 C 270.971 97.133,270.407 97.854,270.407 98.828 C 270.407 99.771,269.988 100.360,268.006 102.202 C 262.901 106.948,262.443 107.476,262.443 108.622 C 262.443 109.531,261.805 110.340,258.643 113.442 C 255.597 116.429,254.842 117.373,254.842 118.190 C 254.842 118.986,254.245 119.784,252.127 121.821 C 250.030 123.838,249.412 124.661,249.412 125.435 C 249.412 126.230,248.626 127.207,245.611 130.161 C 242.397 133.309,241.810 134.058,241.810 135.010 C 241.810 136.149,241.670 136.318,237.242 140.519 C 234.577 143.048,234.208 143.547,234.205 144.628 C 234.203 145.467,233.768 146.095,232.214 147.504 L 230.226 149.306 230.226 153.386 L 230.226 157.466 231.674 158.914 L 233.122 160.362 248.434 160.362 C 259.861 160.362,263.857 160.472,264.181 160.796 C 264.813 161.428,264.813 276.943,264.181 277.575 C 263.855 277.900,259.388 278.009,246.304 278.009 L 228.862 278.009 228.269 278.914 C 227.826 279.589,227.359 279.819,226.430 279.819 C 224.656 279.819,224.434 280.502,224.434 285.967 L 224.434 290.714 226.936 293.230 C 228.775 295.080,229.691 295.747,230.395 295.747 C 231.173 295.747,233.838 298.236,244.542 308.959 C 256.710 321.148,257.826 322.172,258.960 322.172 C 259.832 322.172,260.345 322.408,260.730 322.986 C 261.231 323.740,265.290 327.893,269.015 331.462 C 269.880 332.291,272.015 334.409,273.759 336.168 C 275.503 337.927,277.621 340.051,278.465 340.888 C 279.309 341.724,281.083 343.516,282.406 344.870 C 286.990 349.560,288.418 350.769,289.370 350.769 C 290.274 350.769,300.814 360.785,300.814 361.644 C 300.814 361.835,300.977 361.991,301.176 361.991 C 302.249 361.991,301.008 360.401,296.098 355.489 C 291.624 351.012,290.475 350.045,289.624 350.045 C 288.921 350.045,288.401 349.756,287.997 349.140 C 287.671 348.643,287.175 348.235,286.894 348.235 C 286.613 348.235,286.280 347.910,286.154 347.511 C 286.027 347.113,285.776 346.787,285.596 346.787 C 285.321 346.787,283.990 345.517,281.729 343.098 C 280.985 342.301,280.419 341.733,278.982 340.341 C 277.297 338.710,274.726 336.140,274.135 335.496 C 273.896 335.236,273.488 334.827,273.230 334.587 C 272.972 334.348,272.561 333.941,272.318 333.682 C 271.236 332.534,270.867 332.169,269.529 330.919 C 268.203 329.682,267.624 329.099,266.533 327.899 C 266.294 327.636,265.887 327.222,265.628 326.978 C 265.370 326.735,264.971 326.352,264.742 326.128 C 264.513 325.903,264.024 325.439,263.656 325.096 C 263.288 324.753,262.387 323.792,261.655 322.960 C 260.624 321.788,260.069 321.448,259.186 321.448 C 258.098 321.448,256.588 320.112,251.330 314.492 C 251.090 314.236,250.683 313.828,250.425 313.585 C 250.166 313.341,249.769 312.957,249.542 312.731 C 245.834 309.039,244.085 307.284,243.728 306.897 C 243.488 306.638,243.081 306.226,242.823 305.983 C 242.181 305.378,241.906 305.105,237.987 301.176 C 236.100 299.285,234.381 297.575,234.167 297.376 C 233.953 297.176,233.350 296.566,232.827 296.018 C 232.221 295.384,231.497 295.023,230.836 295.023 C 230.041 295.023,229.250 294.475,227.467 292.693 L 225.137 290.362 225.238 285.543 L 225.339 280.724 226.244 280.623 C 228.147 280.410,228.737 280.156,228.960 279.456 C 229.185 278.747,229.514 278.733,246.540 278.733 C 263.409 278.733,263.912 278.713,264.615 278.009 C 265.623 277.001,265.775 161.212,264.771 160.207 C 264.271 159.708,262.322 159.638,248.831 159.638 L 233.460 159.638 232.205 158.383 L 230.950 157.128 230.950 153.480 L 230.950 149.833 232.941 147.858 C 234.417 146.394,234.932 145.618,234.932 144.862 C 234.932 144.273,235.277 143.514,235.747 143.069 C 236.195 142.645,236.724 142.124,236.923 141.912 C 237.122 141.700,238.466 140.388,239.910 138.996 C 242.164 136.822,242.534 136.291,242.534 135.226 C 242.534 134.303,242.720 133.927,243.258 133.756 C 243.656 133.629,243.982 133.380,243.982 133.201 C 243.982 132.914,248.068 128.746,249.573 127.497 C 249.883 127.240,250.136 126.538,250.136 125.937 C 250.136 125.052,250.653 124.341,252.851 122.206 C 254.937 120.180,255.566 119.338,255.566 118.570 C 255.566 117.779,256.358 116.792,259.367 113.838 C 262.800 110.466,263.167 109.979,263.167 108.801 C 263.167 107.763,263.351 107.412,264.065 107.087 C 264.559 106.862,265.059 106.376,265.176 106.008 C 265.293 105.640,265.518 105.339,265.678 105.339 C 266.601 105.339,271.131 100.203,271.131 99.157 C 271.131 98.147,274.507 94.382,278.178 91.298 C 278.483 91.041,278.733 90.342,278.733 89.744 C 278.733 88.844,279.389 88.004,282.534 84.878 C 285.381 82.049,286.335 80.869,286.335 80.177 C 286.335 79.506,287.080 78.517,289.050 76.573 C 291.425 74.228,291.765 73.731,291.765 72.595 C 291.765 71.564,291.950 71.212,292.663 70.888 C 293.157 70.662,293.656 70.177,293.773 69.809 C 293.890 69.441,294.114 69.140,294.271 69.140 C 294.517 69.140,295.952 67.774,298.657 64.965 C 299.047 64.559,299.367 63.751,299.367 63.169 C 299.367 62.345,299.828 61.679,301.438 60.182 C 303.163 58.576,303.444 58.150,303.118 57.634 C 302.614 56.835,76.888 56.469,76.091 57.266 M308.145 75.852 C 307.375 76.658,306.968 77.444,306.968 78.126 C 306.968 79.138,301.281 85.396,299.870 85.938 C 299.575 86.051,299.367 86.648,299.367 87.380 C 299.367 88.483,298.923 89.072,295.566 92.430 C 292.698 95.297,291.765 96.461,291.765 97.167 C 291.765 97.873,290.830 99.039,287.964 101.909 C 285.059 104.817,284.163 105.940,284.163 106.670 C 284.163 107.403,283.282 108.493,280.362 111.371 C 277.325 114.364,276.561 115.321,276.561 116.135 C 276.561 117.083,272.301 121.991,271.478 121.991 C 271.105 121.991,270.769 122.961,270.769 124.040 C 270.769 124.710,269.787 125.905,266.968 128.663 C 263.993 131.574,263.167 132.595,263.167 133.362 C 263.167 134.126,262.323 135.183,259.346 138.145 C 255.729 141.744,255.531 142.019,255.636 143.282 L 255.747 144.615 263.797 144.713 L 271.848 144.810 272.436 145.708 C 272.954 146.499,273.284 146.606,275.197 146.606 C 277.256 146.606,277.443 146.682,278.775 148.055 L 280.181 149.503 280.181 217.225 L 280.181 284.946 275.867 289.260 L 271.552 293.575 262.002 293.575 C 255.474 293.575,252.325 293.702,252.050 293.977 C 251.421 294.606,261.741 304.796,263.006 304.796 C 263.765 304.796,266.737 307.588,278.233 319.095 C 290.172 331.045,292.683 333.394,293.522 333.394 C 294.483 333.394,298.503 336.932,299.436 338.598 C 299.616 338.921,299.896 339.186,300.058 339.186 C 300.219 339.186,301.579 340.426,303.081 341.942 L 305.811 344.698 311.435 339.046 C 315.859 334.599,317.263 333.394,318.014 333.394 C 318.789 333.394,321.507 330.854,332.351 320.000 C 343.332 309.009,345.909 306.606,346.713 306.602 C 347.850 306.597,360.079 294.651,359.653 293.961 C 359.493 293.703,356.179 293.575,349.655 293.575 L 339.896 293.575 337.550 291.228 L 335.204 288.882 335.204 221.065 L 335.204 153.248 336.109 152.398 C 336.671 151.870,337.014 151.150,337.014 150.497 C 337.014 149.135,339.609 146.606,341.007 146.606 C 341.550 146.606,342.318 146.220,342.805 145.701 L 343.656 144.796 353.294 144.796 C 365.062 144.796,364.810 144.917,360.899 141.171 C 358.566 138.936,358.009 138.197,358.009 137.335 C 358.009 136.456,357.337 135.611,354.208 132.557 C 351.069 129.493,350.407 128.660,350.407 127.773 C 350.407 126.745,346.262 121.991,345.366 121.991 C 344.955 121.991,344.615 121.064,344.615 119.943 C 344.615 119.277,343.620 118.058,340.814 115.286 C 337.890 112.397,337.014 111.310,337.014 110.572 C 337.014 109.856,336.280 108.881,334.118 106.722 C 331.951 104.558,331.221 103.587,331.219 102.865 C 331.217 102.141,330.496 101.188,328.323 99.042 C 326.112 96.857,325.430 95.950,325.430 95.195 C 325.430 94.424,324.595 93.370,321.629 90.393 C 318.742 87.495,317.828 86.350,317.828 85.630 C 317.828 84.930,317.118 83.982,315.113 82.003 C 313.076 79.991,312.398 79.080,312.398 78.352 C 312.398 77.707,311.927 76.909,310.993 75.976 C 309.331 74.314,309.602 74.326,308.145 75.852 M76.466 171.419 L 75.656 171.987 75.656 220.090 L 75.656 268.194 76.461 268.758 C 77.426 269.434,105.832 269.626,106.244 268.959 C 106.392 268.720,101.506 268.597,91.858 268.597 C 80.978 268.597,77.138 268.486,76.814 268.163 C 76.126 267.475,76.190 172.554,76.879 171.982 C 77.240 171.682,81.631 171.595,92.807 171.666 C 102.975 171.731,108.194 171.641,108.115 171.403 C 107.889 170.725,77.435 170.741,76.466 171.419 " stroke="none" fill="#7092be" fill-rule="evenodd"></path><path id="path4" d="M106.994 219.686 C 106.886 219.862,106.831 231.061,106.873 244.573 C 106.966 274.795,106.966 289.882,106.873 311.826 C 106.822 323.790,106.918 328.952,107.200 329.292 C 107.760 329.966,214.277 330.013,214.950 329.339 C 215.411 328.879,215.622 221.131,215.165 219.939 C 214.915 219.288,107.396 219.037,106.994 219.686 " stroke="none" fill="#fff200" fill-rule="evenodd"></path><path id="path5" d="M6.320 10.588 C 6.225 10.837,6.189 21.303,6.241 33.846 L 6.335 56.652 14.480 56.746 C 21.620 56.828,22.680 56.915,23.077 57.448 C 23.437 57.933,23.529 87.822,23.529 204.051 L 23.529 350.045 49.593 350.045 L 75.656 350.045 75.656 322.904 L 75.656 295.763 76.510 295.204 C 77.251 294.718,79.285 294.657,91.895 294.743 L 106.426 294.842 106.426 281.991 L 106.426 269.140 91.895 269.239 C 79.285 269.325,77.251 269.264,76.510 268.778 L 75.656 268.219 75.656 220.090 L 75.656 171.962 76.515 171.400 C 77.264 170.909,79.361 170.850,92.985 170.939 L 108.598 171.041 108.597 157.195 L 108.597 143.348 92.561 143.348 C 80.571 143.348,76.415 143.239,76.090 142.914 C 75.410 142.234,75.465 57.804,76.146 57.238 C 77.076 56.467,302.629 56.860,303.118 57.634 C 303.444 58.150,303.163 58.576,301.438 60.182 C 299.762 61.741,299.367 62.327,299.367 63.251 C 299.367 64.021,299.104 64.577,298.562 64.957 C 298.000 65.350,297.924 65.520,298.309 65.520 C 299.227 65.520,299.729 64.725,299.729 63.267 C 299.729 62.123,299.886 61.823,300.633 61.538 C 301.131 61.349,301.538 60.942,301.538 60.633 C 301.538 60.325,301.941 59.919,302.433 59.732 C 302.974 59.527,303.422 58.993,303.566 58.384 C 304.148 55.916,305.236 55.385,309.708 55.385 L 313.760 55.385 314.743 56.673 C 315.593 57.787,315.782 57.885,316.143 57.397 C 316.516 56.892,320.580 56.822,354.208 56.742 L 391.855 56.652 391.855 33.484 L 391.855 10.317 199.174 10.226 C 45.220 10.153,6.459 10.226,6.320 10.588 M315.656 58.785 C 315.656 59.062,315.924 59.392,316.251 59.517 C 317.076 59.834,317.097 59.656,316.320 58.914 C 315.814 58.432,315.656 58.401,315.656 58.785 M317.472 60.362 C 317.482 60.888,318.110 61.625,318.435 61.492 C 318.615 61.418,318.471 61.072,318.115 60.724 C 317.758 60.376,317.469 60.213,317.472 60.362 M319.334 62.920 C 319.265 64.351,319.818 65.520,320.565 65.520 C 320.861 65.520,321.259 65.928,321.448 66.425 C 321.637 66.923,322.044 67.330,322.352 67.330 C 322.660 67.330,323.091 67.724,323.310 68.205 C 323.529 68.685,324.004 69.156,324.365 69.251 C 324.849 69.377,325.052 69.840,325.136 71.001 C 325.221 72.188,325.436 72.661,326.003 72.911 C 326.418 73.093,326.907 73.571,327.089 73.973 C 327.272 74.375,327.652 74.778,327.935 74.869 C 328.562 75.070,328.013 74.324,326.425 72.819 C 325.778 72.205,325.430 71.502,325.430 70.807 C 325.430 69.948,324.871 69.201,322.562 66.974 C 320.282 64.775,319.663 63.953,319.543 62.964 L 319.392 61.719 319.334 62.920 M297.104 66.667 C 296.622 67.172,296.591 67.330,296.975 67.330 C 297.252 67.330,297.582 67.063,297.707 66.736 C 298.024 65.910,297.846 65.890,297.104 66.667 M295.278 68.427 C 294.942 68.819,294.809 69.140,294.982 69.140 C 295.380 69.140,296.266 68.091,296.050 67.875 C 295.962 67.787,295.614 68.035,295.278 68.427 M293.575 70.108 C 293.575 70.308,293.167 70.658,292.670 70.884 C 291.925 71.223,291.765 71.552,291.765 72.734 C 291.765 73.722,291.566 74.288,291.131 74.541 C 290.569 74.868,290.565 74.911,291.092 74.921 C 291.810 74.934,292.127 74.207,292.127 72.550 C 292.127 71.740,292.299 71.312,292.625 71.312 C 293.234 71.312,294.130 70.299,293.807 69.976 C 293.679 69.848,293.575 69.907,293.575 70.108 M307.964 75.631 C 307.076 76.545,306.606 77.367,306.606 78.006 C 306.606 78.758,305.847 79.730,303.311 82.229 C 301.498 84.014,300.085 85.545,300.172 85.632 C 300.641 86.101,306.968 79.113,306.968 78.124 C 306.968 77.411,307.375 76.673,308.251 75.798 L 309.533 74.515 310.965 75.948 C 311.922 76.905,312.398 77.703,312.398 78.352 C 312.398 79.080,313.076 79.991,315.113 82.003 C 317.118 83.982,317.828 84.930,317.828 85.630 C 317.828 86.350,318.742 87.495,321.629 90.393 C 324.595 93.370,325.430 94.424,325.430 95.195 C 325.430 95.950,326.112 96.857,328.323 99.042 C 330.496 101.188,331.217 102.141,331.219 102.865 C 331.221 103.587,331.951 104.558,334.118 106.722 C 336.280 108.881,337.014 109.856,337.014 110.572 C 337.014 111.310,337.890 112.397,340.814 115.286 C 343.620 118.058,344.615 119.277,344.615 119.943 C 344.615 121.140,344.963 121.991,345.450 121.991 C 345.715 121.991,345.702 121.847,345.412 121.557 C 345.173 121.318,344.977 120.621,344.977 120.008 C 344.977 119.259,344.651 118.591,343.982 117.968 C 343.434 117.458,342.009 116.022,340.814 114.777 C 339.620 113.532,338.357 112.360,338.009 112.172 C 337.600 111.951,337.376 111.401,337.376 110.619 C 337.376 109.589,336.945 108.978,334.480 106.513 C 332.286 104.320,331.584 103.379,331.584 102.638 C 331.584 101.890,330.896 100.985,328.688 98.824 C 326.504 96.686,325.792 95.752,325.792 95.026 C 325.792 94.283,324.924 93.206,321.991 90.308 C 318.945 87.299,318.190 86.350,318.190 85.529 C 318.190 84.877,317.829 84.171,317.195 83.584 C 314.340 80.944,312.760 78.964,312.760 78.028 C 312.760 77.342,312.302 76.620,311.238 75.628 C 309.403 73.917,309.628 73.917,307.964 75.631 M330.771 77.526 C 330.875 77.925,331.345 78.427,331.815 78.641 C 332.485 78.946,332.670 79.314,332.670 80.348 C 332.670 81.604,333.173 82.534,333.854 82.534 C 334.027 82.534,333.913 82.278,333.601 81.965 C 333.288 81.652,333.032 80.914,333.032 80.324 C 333.032 79.588,332.647 78.867,331.806 78.027 C 330.865 77.085,330.625 76.969,330.771 77.526 M287.524 78.047 C 287.083 78.524,286.868 78.914,287.046 78.914 C 287.471 78.914,288.507 77.869,288.507 77.440 C 288.507 77.002,288.469 77.026,287.524 78.047 M283.553 83.827 C 282.123 85.306,281.094 86.516,281.265 86.516 C 281.652 86.516,282.715 85.478,282.715 85.100 C 282.715 84.947,283.122 84.637,283.620 84.410 C 284.118 84.183,284.525 83.746,284.525 83.438 C 284.525 83.130,284.932 82.723,285.430 82.534 C 285.928 82.345,286.335 81.941,286.335 81.638 C 286.335 80.908,286.508 80.771,283.553 83.827 M334.491 83.142 C 334.476 83.693,335.493 84.709,336.044 84.695 C 336.279 84.689,336.191 84.521,335.849 84.321 C 335.507 84.122,335.064 83.679,334.864 83.337 C 334.665 82.995,334.497 82.907,334.491 83.142 M336.738 85.430 C 336.816 85.729,337.235 86.134,337.670 86.330 C 338.243 86.589,338.462 87.005,338.462 87.839 C 338.462 89.413,338.789 90.138,339.496 90.125 C 340.023 90.115,340.019 90.072,339.457 89.745 C 339.024 89.493,338.824 88.926,338.824 87.959 C 338.824 86.857,338.642 86.446,338.009 86.112 C 337.561 85.876,337.060 85.504,336.896 85.285 C 336.703 85.028,336.647 85.079,336.738 85.430 M299.246 86.033 C 299.113 86.166,299.005 86.777,299.004 87.391 C 299.004 88.331,298.405 89.093,295.204 92.223 C 292.244 95.116,291.403 96.154,291.403 96.910 C 291.403 97.516,290.959 98.340,290.226 99.098 C 287.104 102.326,284.332 104.977,284.080 104.977 C 283.927 104.977,283.801 105.560,283.801 106.273 C 283.801 107.440,283.426 107.935,280.000 111.287 C 277.021 114.202,276.199 115.218,276.199 115.989 C 276.199 116.720,275.589 117.572,273.810 119.325 C 272.497 120.619,271.493 121.750,271.581 121.838 C 272.031 122.287,276.561 117.099,276.561 116.135 C 276.561 115.321,277.325 114.364,280.362 111.371 C 283.282 108.493,284.163 107.403,284.163 106.670 C 284.163 105.940,285.059 104.817,287.964 101.909 C 290.842 99.027,291.765 97.875,291.765 97.161 C 291.765 96.448,292.662 95.326,295.455 92.546 C 298.691 89.327,299.175 88.684,299.380 87.333 C 299.628 85.699,299.623 85.656,299.246 86.033 M279.519 87.827 C 278.689 88.623,278.688 88.632,279.459 88.430 C 279.890 88.317,280.330 87.997,280.437 87.717 C 280.745 86.915,280.432 86.953,279.519 87.827 M340.271 90.870 C 340.271 91.248,341.315 92.308,341.687 92.308 C 341.840 92.308,342.140 92.692,342.355 93.162 C 342.569 93.633,343.120 94.115,343.579 94.236 C 344.404 94.451,344.403 94.445,343.493 93.652 C 342.987 93.211,342.055 92.337,341.422 91.710 C 340.789 91.083,340.271 90.704,340.271 90.870 M278.190 91.259 C 275.636 93.482,271.326 97.981,271.894 97.832 C 272.301 97.726,272.781 97.254,272.960 96.783 C 273.139 96.313,273.537 95.928,273.845 95.928 C 274.153 95.928,274.584 95.534,274.803 95.053 C 275.022 94.572,275.519 94.096,275.908 93.994 C 276.297 93.893,276.703 93.472,276.811 93.059 C 276.919 92.646,277.213 92.308,277.464 92.308 C 277.715 92.308,278.126 92.059,278.378 91.756 C 278.891 91.139,278.751 90.771,278.190 91.259 M344.253 96.850 C 344.253 97.149,344.661 97.548,345.158 97.738 C 345.656 97.927,346.063 98.333,346.063 98.641 C 346.063 98.949,346.453 99.378,346.928 99.595 C 347.404 99.812,347.971 100.379,348.188 100.854 C 348.404 101.330,348.834 101.719,349.141 101.719 C 349.449 101.719,349.856 102.127,350.045 102.624 C 350.234 103.122,350.576 103.529,350.805 103.529 C 351.375 103.529,350.807 102.853,347.240 99.290 C 345.597 97.649,344.253 96.551,344.253 96.850 M270.317 101.071 C 269.652 101.751,269.877 101.930,270.723 101.394 C 270.996 101.221,271.159 100.931,271.085 100.751 C 271.011 100.570,270.665 100.714,270.317 101.071 M268.507 102.866 C 268.024 103.371,267.994 103.529,268.378 103.529 C 268.655 103.529,268.985 103.262,269.110 102.935 C 269.427 102.109,269.249 102.089,268.507 102.866 M266.681 104.626 C 266.345 105.018,266.212 105.339,266.385 105.339 C 266.783 105.339,267.669 104.290,267.453 104.074 C 267.364 103.986,267.017 104.234,266.681 104.626 M264.977 106.307 C 264.977 106.507,264.570 106.857,264.072 107.083 C 263.327 107.423,263.167 107.751,263.167 108.939 C 263.167 109.975,262.978 110.483,262.495 110.742 C 261.669 111.183,260.472 112.941,260.996 112.941 C 261.205 112.941,261.530 112.534,261.719 112.036 C 261.909 111.538,262.294 111.131,262.577 111.131 C 263.217 111.131,263.529 110.350,263.529 108.749 C 263.529 107.939,263.702 107.511,264.028 107.511 C 264.636 107.511,265.533 106.498,265.210 106.175 C 265.082 106.047,264.977 106.107,264.977 106.307 M351.918 106.454 C 352.009 106.737,352.429 107.125,352.852 107.316 C 353.275 107.507,353.700 107.967,353.797 108.338 C 353.894 108.709,354.277 109.092,354.648 109.189 C 355.019 109.286,355.479 109.712,355.670 110.135 C 355.862 110.557,356.249 110.977,356.532 111.068 C 357.171 111.273,356.743 110.728,354.501 108.486 C 352.258 106.244,351.714 105.815,351.918 106.454 M258.927 114.246 C 258.486 114.723,258.271 115.113,258.449 115.113 C 258.874 115.113,259.910 114.068,259.910 113.639 C 259.910 113.201,259.872 113.225,258.927 114.246 M357.733 114.027 C 357.811 114.326,358.204 114.719,358.606 114.902 C 359.008 115.084,359.486 115.562,359.669 115.964 C 359.851 116.366,360.244 116.756,360.543 116.830 C 360.914 116.922,360.885 116.838,360.452 116.564 C 360.104 116.344,359.819 115.933,359.819 115.651 C 359.819 115.369,359.452 114.946,359.005 114.710 C 358.557 114.474,358.055 114.102,357.891 113.882 C 357.698 113.625,357.642 113.677,357.733 114.027 M256.923 116.275 C 256.258 116.955,256.483 117.134,257.329 116.597 C 257.602 116.424,257.765 116.135,257.691 115.954 C 257.617 115.774,257.271 115.918,256.923 116.275 M255.566 118.427 C 255.566 119.373,255.100 120.022,252.868 122.190 C 251.293 123.719,250.477 124.730,250.907 124.617 C 251.313 124.511,251.819 124.043,252.031 123.577 C 252.244 123.110,252.710 122.636,253.068 122.522 C 253.426 122.409,253.812 122.023,253.925 121.665 C 254.039 121.308,254.536 120.831,255.030 120.606 C 255.837 120.238,256.475 117.285,255.747 117.285 C 255.647 117.285,255.566 117.799,255.566 118.427 M361.273 117.557 C 361.283 118.083,361.911 118.820,362.236 118.687 C 362.416 118.613,362.272 118.267,361.916 117.919 C 361.559 117.570,361.269 117.407,361.273 117.557 M363.138 120.246 C 363.077 121.565,363.773 122.715,364.631 122.715 C 364.860 122.715,364.696 122.468,364.265 122.166 C 363.765 121.816,363.431 121.129,363.340 120.266 L 363.199 118.914 363.138 120.246 M270.649 122.232 C 270.516 122.365,270.407 122.976,270.407 123.590 C 270.407 124.530,269.807 125.292,266.606 128.422 C 263.507 131.451,262.805 132.331,262.805 133.188 C 262.805 134.191,256.428 141.176,255.512 141.176 C 255.038 141.176,255.146 144.232,255.638 144.724 C 255.949 145.035,258.299 145.158,263.922 145.158 L 271.772 145.158 272.365 146.063 C 272.885 146.857,273.217 146.968,275.062 146.968 C 276.943 146.968,277.268 147.083,278.133 148.054 C 278.665 148.652,279.262 149.140,279.460 149.140 C 279.696 149.140,279.819 172.357,279.819 217.010 L 279.819 284.879 275.652 289.046 L 271.486 293.213 262.054 293.213 C 251.081 293.213,249.610 293.544,252.398 295.390 L 253.575 296.168 252.577 295.308 C 250.735 293.721,251.532 293.575,262.002 293.575 L 271.552 293.575 275.867 289.260 L 280.181 284.946 280.181 217.225 L 280.181 149.503 278.775 148.055 C 277.443 146.682,277.256 146.606,275.197 146.606 C 273.284 146.606,272.954 146.499,272.436 145.708 L 271.848 144.810 263.797 144.713 L 255.747 144.615 255.636 143.282 C 255.531 142.019,255.729 141.744,259.346 138.145 C 262.323 135.183,263.167 134.126,263.167 133.362 C 263.167 132.596,263.984 131.583,266.909 128.721 C 270.243 125.459,270.673 124.893,270.857 123.525 C 271.070 121.935,271.053 121.828,270.649 122.232 M346.063 122.219 C 346.063 122.341,347.041 123.392,348.235 124.553 C 349.942 126.213,350.407 126.899,350.407 127.756 C 350.407 128.664,351.044 129.468,354.208 132.557 C 357.337 135.611,358.009 136.456,358.009 137.335 C 358.009 138.197,358.566 138.936,360.899 141.171 C 364.810 144.917,365.062 144.796,353.294 144.796 L 343.656 144.796 342.805 145.701 C 342.318 146.220,341.550 146.606,341.007 146.606 C 339.609 146.606,337.014 149.135,337.014 150.497 C 337.014 151.150,336.671 151.870,336.109 152.398 L 335.204 153.248 335.204 221.065 L 335.204 288.882 337.550 291.228 L 339.896 293.575 349.655 293.575 C 356.179 293.575,359.493 293.703,359.653 293.961 C 360.079 294.651,347.850 306.597,346.713 306.602 C 345.909 306.606,343.332 309.009,332.351 320.000 C 321.269 331.093,318.800 333.394,317.979 333.394 C 317.047 333.394,311.368 338.638,311.815 339.085 C 311.986 339.256,316.028 335.096,316.486 334.278 C 316.649 333.986,317.310 333.756,317.982 333.756 C 319.084 333.756,320.329 332.612,332.573 320.362 C 343.584 309.344,346.132 306.968,346.938 306.968 C 347.848 306.968,360.181 295.216,360.181 294.349 C 360.181 293.335,359.054 293.212,349.701 293.206 L 340.090 293.199 337.828 290.909 L 335.566 288.618 335.566 220.912 L 335.566 153.205 336.471 152.612 C 337.113 152.191,337.376 151.695,337.376 150.899 C 337.376 149.331,339.738 146.968,341.307 146.968 C 342.102 146.968,342.599 146.706,343.020 146.063 L 343.613 145.158 353.319 145.158 C 365.865 145.158,365.726 145.238,361.060 140.742 C 358.902 138.663,358.371 137.939,358.371 137.077 C 358.371 136.187,357.719 135.372,354.570 132.333 C 351.501 129.369,350.769 128.465,350.769 127.637 C 350.769 126.852,350.216 126.069,348.416 124.304 C 347.122 123.035,346.063 122.097,346.063 122.219 M365.249 123.581 C 365.249 123.859,365.517 124.188,365.844 124.314 C 366.669 124.630,366.690 124.452,365.913 123.710 C 365.407 123.228,365.249 123.197,365.249 123.581 M367.064 125.158 C 367.075 125.685,367.703 126.421,368.028 126.288 C 368.208 126.214,368.064 125.869,367.707 125.520 C 367.351 125.172,367.061 125.009,367.064 125.158 M368.869 127.283 C 368.869 127.567,369.276 127.984,369.774 128.211 C 370.437 128.513,370.679 128.904,370.679 129.675 C 370.679 131.005,371.268 132.127,371.967 132.127 C 372.264 132.127,372.661 132.534,372.851 133.032 C 373.040 133.529,373.447 133.937,373.756 133.937 C 374.064 133.937,374.466 134.330,374.649 134.811 C 374.832 135.291,375.316 135.791,375.726 135.921 C 376.302 136.104,376.471 136.463,376.471 137.509 C 376.471 138.794,376.969 139.729,377.655 139.729 C 377.828 139.729,377.714 139.473,377.401 139.160 C 377.089 138.847,376.833 138.100,376.833 137.500 C 376.833 136.614,376.289 135.877,373.937 133.575 C 371.740 131.425,371.041 130.506,371.041 129.769 C 371.041 129.156,370.640 128.423,369.955 127.783 C 369.250 127.124,368.869 126.949,368.869 127.283 M249.593 127.457 C 247.282 129.461,244.558 132.365,245.131 132.215 C 245.528 132.111,246.022 131.655,246.229 131.202 C 246.435 130.749,246.922 130.295,247.311 130.193 C 247.700 130.092,248.106 129.671,248.214 129.258 C 248.322 128.845,248.616 128.507,248.867 128.507 C 249.118 128.507,249.529 128.259,249.781 127.955 C 250.293 127.338,250.154 126.970,249.593 127.457 M241.719 137.270 C 241.055 137.950,241.279 138.129,242.126 137.593 C 242.399 137.420,242.562 137.131,242.488 136.950 C 242.414 136.769,242.068 136.913,241.719 137.270 M239.910 139.065 C 239.427 139.570,239.396 139.729,239.780 139.729 C 240.058 139.729,240.387 139.461,240.513 139.134 C 240.830 138.308,240.651 138.288,239.910 139.065 M238.084 140.825 C 237.748 141.218,237.615 141.538,237.787 141.538 C 238.185 141.538,239.072 140.489,238.856 140.274 C 238.767 140.185,238.420 140.433,238.084 140.825 M378.281 140.345 C 378.281 140.763,379.308 141.728,379.510 141.500 C 379.579 141.421,379.330 141.044,378.958 140.661 C 378.585 140.277,378.281 140.135,378.281 140.345 M235.864 143.033 C 235.481 143.406,235.339 143.710,235.548 143.710 C 235.966 143.710,236.931 142.683,236.703 142.481 C 236.625 142.412,236.248 142.661,235.864 143.033 M380.539 142.624 C 380.617 142.923,381.036 143.328,381.471 143.525 C 382.044 143.783,382.262 144.200,382.262 145.034 C 382.262 146.608,382.590 147.332,383.297 147.319 C 383.824 147.310,383.820 147.267,383.258 146.939 C 382.825 146.687,382.624 146.121,382.624 145.153 C 382.624 144.052,382.443 143.640,381.810 143.307 C 381.362 143.071,380.861 142.699,380.696 142.480 C 380.503 142.223,380.448 142.274,380.539 142.624 M233.830 146.917 C 232.294 148.512,231.886 149.140,232.388 149.140 C 232.630 149.140,232.916 148.802,233.025 148.389 C 233.133 147.975,233.606 147.490,234.077 147.312 C 234.547 147.133,234.932 146.738,234.932 146.434 C 234.932 145.758,234.957 145.747,233.830 146.917 M231.028 153.225 L 230.950 157.128 232.205 158.383 L 233.460 159.638 248.831 159.638 C 262.322 159.638,264.271 159.708,264.771 160.207 C 265.083 160.520,265.339 160.634,265.339 160.460 C 265.339 159.345,264.382 159.276,248.796 159.276 C 235.007 159.276,233.122 159.210,233.122 158.725 C 233.122 158.422,232.720 157.991,232.229 157.767 C 231.368 157.375,231.331 157.213,231.220 153.341 L 231.105 149.321 231.028 153.225 M384.641 158.035 C 384.328 158.348,384.072 158.755,384.072 158.940 C 384.072 159.142,377.454 159.276,367.493 159.276 C 350.991 159.276,350.045 159.340,350.045 160.460 C 350.045 160.634,350.301 160.520,350.614 160.207 C 351.114 159.707,353.147 159.638,367.482 159.638 L 383.782 159.638 384.796 158.552 C 385.825 157.451,385.687 156.989,384.641 158.035 M264.525 278.069 C 263.989 278.631,263.977 278.733,264.446 278.733 C 264.751 278.733,265.097 278.482,265.214 278.174 C 265.528 277.356,265.247 277.313,264.525 278.069 M350.045 277.738 C 350.045 278.062,350.219 278.436,350.431 278.567 C 351.052 278.951,351.113 278.607,350.559 277.849 C 350.129 277.262,350.045 277.243,350.045 277.738 M382.165 279.485 C 382.274 279.901,382.730 280.409,383.178 280.614 C 383.626 280.818,384.160 281.351,384.364 281.800 C 384.568 282.248,385.076 282.704,385.492 282.813 C 386.118 282.976,386.057 282.831,385.143 281.976 C 384.534 281.407,383.570 280.444,383.001 279.835 C 382.147 278.920,382.001 278.859,382.165 279.485 M228.707 279.853 C 228.626 280.096,227.835 280.391,226.949 280.509 L 225.339 280.724 225.238 285.584 L 225.136 290.444 226.233 291.446 C 226.837 291.997,227.328 292.335,227.325 292.197 C 227.315 291.733,226.793 291.171,226.154 290.935 C 225.593 290.728,225.520 290.138,225.520 285.803 L 225.520 280.905 226.924 280.905 C 228.212 280.905,229.537 280.095,229.049 279.607 C 228.941 279.499,228.788 279.610,228.707 279.853 M384.507 291.475 C 384.268 291.714,384.072 292.121,384.072 292.380 C 384.072 292.639,383.848 292.851,383.574 292.851 C 383.038 292.851,382.053 293.847,382.322 294.117 C 382.482 294.277,384.171 292.748,385.082 291.619 C 385.623 290.949,385.151 290.830,384.507 291.475 M228.711 293.937 C 229.379 294.698,229.994 295.023,230.769 295.023 C 231.505 295.023,232.190 295.355,232.819 296.018 C 234.324 297.605,235.070 298.155,234.869 297.528 C 234.778 297.245,234.375 296.864,233.973 296.682 C 233.571 296.500,233.093 296.011,232.911 295.596 C 232.662 295.031,232.188 294.813,231.021 294.729 C 229.960 294.653,229.391 294.422,229.237 294.005 C 229.012 293.392,228.444 292.867,227.996 292.856 C 227.865 292.853,228.186 293.339,228.711 293.937 M380.861 294.986 C 380.588 295.159,380.425 295.449,380.499 295.629 C 380.573 295.810,380.919 295.666,381.267 295.309 C 381.932 294.629,381.707 294.450,380.861 294.986 M253.394 296.561 C 253.394 296.858,259.644 303.011,259.793 302.861 C 259.870 302.785,258.745 301.519,257.294 300.049 C 254.603 297.323,253.394 296.241,253.394 296.561 M377.039 297.039 C 376.727 297.352,376.471 297.796,376.471 298.025 C 376.471 298.254,376.717 298.089,377.019 297.659 C 377.369 297.159,378.056 296.824,378.919 296.734 L 380.271 296.592 378.940 296.531 C 378.142 296.495,377.380 296.698,377.039 297.039 M236.064 299.276 C 236.561 299.909,240.893 304.158,242.032 305.130 C 242.553 305.574,242.613 305.574,242.471 305.130 C 242.380 304.847,241.950 304.455,241.515 304.258 C 241.080 304.062,240.724 303.692,240.724 303.436 C 240.724 303.180,240.335 302.794,239.859 302.577 C 239.383 302.360,238.816 301.793,238.600 301.318 C 238.383 300.842,237.954 300.452,237.646 300.452 C 237.338 300.452,236.931 300.045,236.742 299.548 C 236.553 299.050,236.211 298.643,235.983 298.643 C 235.701 298.643,235.728 298.847,236.064 299.276 M374.872 299.237 C 374.555 300.063,374.733 300.083,375.475 299.306 C 375.958 298.801,375.988 298.643,375.604 298.643 C 375.327 298.643,374.997 298.910,374.872 299.237 M373.259 300.778 C 372.986 300.951,372.823 301.241,372.897 301.421 C 372.971 301.602,373.317 301.458,373.665 301.101 C 374.330 300.421,374.105 300.242,373.259 300.778 M371.326 302.823 C 370.641 303.646,370.216 304.042,369.452 304.569 C 369.077 304.828,368.832 305.189,368.909 305.371 C 368.987 305.553,369.817 304.928,370.754 303.982 C 371.691 303.036,372.308 302.262,372.125 302.262 C 371.943 302.262,371.583 302.515,371.326 302.823 M260.990 303.982 C 261.573 304.862,262.034 305.158,262.824 305.158 C 263.731 305.158,265.889 307.169,278.165 319.457 C 289.697 331.000,292.633 333.756,293.398 333.756 C 294.099 333.756,295.058 334.478,297.094 336.540 C 298.605 338.071,299.677 339.029,299.474 338.667 C 298.510 336.944,294.502 333.394,293.522 333.394 C 292.683 333.394,290.172 331.045,278.233 319.095 C 266.248 307.098,263.786 304.796,262.938 304.796 C 262.285 304.796,261.624 304.444,261.070 303.801 L 260.212 302.805 260.990 303.982 M367.270 306.839 C 366.953 307.665,367.132 307.685,367.873 306.908 C 368.356 306.403,368.387 306.244,368.003 306.244 C 367.725 306.244,367.396 306.512,367.270 306.839 M245.446 308.793 C 246.055 309.362,247.018 310.326,247.587 310.935 C 248.441 311.849,248.587 311.910,248.423 311.284 C 248.314 310.868,247.859 310.360,247.410 310.156 C 246.962 309.951,246.429 309.418,246.224 308.970 C 246.020 308.521,245.512 308.066,245.096 307.957 C 244.470 307.793,244.531 307.939,245.446 308.793 M365.657 308.380 C 365.384 308.553,365.221 308.842,365.295 309.023 C 365.369 309.204,365.715 309.060,366.063 308.703 C 366.728 308.022,366.504 307.844,365.657 308.380 M363.646 310.433 C 363.333 310.746,363.082 311.194,363.088 311.429 C 363.094 311.663,363.262 311.575,363.461 311.233 C 363.661 310.891,364.104 310.448,364.446 310.249 C 364.788 310.049,364.876 309.881,364.641 309.875 C 364.407 309.869,363.959 310.120,363.646 310.433 M361.267 312.941 C 361.078 313.439,360.692 313.846,360.410 313.846 C 359.989 313.846,359.457 314.558,359.457 315.122 C 359.457 315.312,361.392 313.416,361.960 312.670 C 362.293 312.232,362.313 312.036,362.026 312.036 C 361.798 312.036,361.456 312.443,361.267 312.941 M251.251 314.351 C 253.333 316.806,257.990 321.288,257.832 320.686 C 257.726 320.278,257.254 319.798,256.783 319.619 C 256.313 319.440,255.928 319.042,255.928 318.734 C 255.928 318.426,255.538 317.997,255.063 317.780 C 254.587 317.564,254.020 316.997,253.803 316.521 C 253.587 316.045,253.200 315.656,252.944 315.656 C 252.689 315.656,252.319 315.300,252.122 314.865 C 251.926 314.430,251.533 314.000,251.251 313.909 C 250.806 313.767,250.806 313.827,251.251 314.351 M358.055 315.982 C 357.782 316.155,357.619 316.444,357.693 316.625 C 357.767 316.805,358.113 316.661,358.462 316.305 C 359.126 315.624,358.902 315.446,358.055 315.982 M356.044 318.035 C 355.731 318.348,355.480 318.796,355.486 319.030 C 355.492 319.265,355.660 319.177,355.860 318.835 C 356.059 318.493,356.502 318.050,356.844 317.851 C 357.186 317.651,357.274 317.483,357.039 317.477 C 356.805 317.471,356.357 317.722,356.044 318.035 M353.731 320.543 C 353.504 321.041,353.067 321.448,352.759 321.448 C 352.451 321.448,352.044 321.855,351.855 322.353 C 351.566 323.112,351.276 323.258,350.046 323.258 C 348.853 323.258,348.509 323.418,348.188 324.123 C 347.971 324.599,347.404 325.165,346.928 325.382 C 346.453 325.599,346.063 326.028,346.063 326.336 C 346.063 326.644,345.656 327.051,345.158 327.240 C 344.661 327.429,344.253 327.836,344.253 328.145 C 344.253 328.453,343.860 328.855,343.379 329.038 C 342.899 329.221,342.399 329.705,342.269 330.115 C 342.139 330.525,341.796 330.860,341.506 330.860 C 341.217 330.860,340.803 331.249,340.586 331.725 C 340.369 332.201,339.802 332.767,339.327 332.984 C 338.851 333.201,338.462 333.630,338.462 333.938 C 338.462 334.246,338.054 334.652,337.557 334.842 C 337.059 335.031,336.652 335.438,336.652 335.747 C 336.652 336.055,336.258 336.457,335.778 336.640 C 335.297 336.823,334.800 337.299,334.673 337.698 C 334.546 338.098,334.133 338.523,333.756 338.643 C 333.378 338.762,332.971 339.170,332.851 339.548 C 332.731 339.925,332.306 340.338,331.906 340.465 C 331.507 340.592,331.031 341.089,330.848 341.569 C 330.665 342.050,330.263 342.443,329.955 342.443 C 329.646 342.443,329.239 342.851,329.050 343.348 C 328.861 343.846,328.454 344.253,328.146 344.253 C 327.838 344.253,327.409 344.643,327.192 345.118 C 326.975 345.594,326.431 346.151,325.983 346.355 C 325.535 346.559,325.084 347.047,324.982 347.439 C 324.879 347.831,330.308 342.632,337.045 335.886 C 347.065 325.853,349.471 323.620,350.267 323.620 C 350.972 323.620,351.773 323.070,353.169 321.629 C 354.229 320.534,354.882 319.638,354.620 319.638 C 354.358 319.638,353.958 320.045,353.731 320.543 M260.905 322.112 C 261.647 322.889,261.825 322.868,261.508 322.043 C 261.383 321.716,261.053 321.448,260.776 321.448 C 260.392 321.448,260.423 321.606,260.905 322.112 M262.830 324.299 C 263.289 324.921,263.786 325.430,263.934 325.430 C 264.081 325.430,264.484 325.712,264.829 326.057 C 265.304 326.532,265.414 326.554,265.284 326.147 C 265.189 325.852,264.783 325.462,264.380 325.279 C 263.978 325.097,263.500 324.619,263.318 324.217 C 263.136 323.815,262.763 323.414,262.490 323.327 C 262.195 323.233,262.332 323.626,262.830 324.299 M266.454 327.768 C 267.431 328.963,269.100 330.478,269.262 330.316 C 269.508 330.070,268.568 329.050,268.096 329.050 C 267.869 329.050,267.522 328.694,267.326 328.259 C 267.129 327.824,266.737 327.394,266.454 327.303 C 266.010 327.161,266.010 327.224,266.454 327.768 M270.317 331.508 C 270.665 331.865,271.011 332.009,271.085 331.828 C 271.159 331.648,270.996 331.358,270.723 331.185 C 269.877 330.649,269.652 330.828,270.317 331.508 M271.674 333.102 C 272.072 333.328,272.518 333.690,272.664 333.906 C 272.842 334.169,272.932 334.173,272.936 333.919 C 272.944 333.356,272.153 332.668,271.511 332.681 C 271.095 332.689,271.137 332.798,271.674 333.102 M274.056 335.355 C 275.841 337.490,278.906 340.255,278.670 339.519 C 278.579 339.236,278.159 338.848,277.736 338.657 C 277.314 338.466,276.888 338.005,276.791 337.634 C 276.694 337.263,276.311 336.880,275.940 336.783 C 275.569 336.686,275.109 336.261,274.918 335.838 C 274.727 335.415,274.339 334.995,274.056 334.905 C 273.612 334.763,273.612 334.824,274.056 335.355 M300.496 339.819 C 302.825 342.808,306.606 345.771,306.606 344.607 C 306.606 344.404,307.465 343.386,308.515 342.345 C 309.565 341.304,310.659 340.127,310.946 339.729 C 311.234 339.330,310.200 340.290,308.649 341.860 L 305.828 344.716 303.089 341.951 C 300.476 339.312,299.431 338.453,300.496 339.819 M281.658 342.957 C 283.443 345.091,286.507 347.857,286.272 347.120 C 286.181 346.838,285.761 346.450,285.338 346.259 C 284.915 346.067,284.490 345.607,284.393 345.236 C 284.296 344.865,283.913 344.482,283.542 344.385 C 283.171 344.288,282.711 343.863,282.520 343.440 C 282.328 343.017,281.941 342.597,281.658 342.507 C 281.214 342.364,281.214 342.426,281.658 342.957 M323.258 349.140 C 323.069 349.638,322.661 350.045,322.353 350.045 C 322.044 350.045,321.641 350.443,321.456 350.929 C 321.183 351.646,320.828 351.833,319.565 351.924 C 318.400 352.008,317.926 352.226,317.678 352.791 C 317.495 353.206,317.017 353.694,316.615 353.877 C 316.213 354.059,315.810 354.440,315.719 354.722 C 315.518 355.349,316.265 354.800,317.770 353.213 C 318.376 352.573,319.088 352.217,319.761 352.217 C 320.496 352.217,321.203 351.812,322.128 350.860 C 324.038 348.893,324.512 348.235,324.017 348.235 C 323.789 348.235,323.447 348.643,323.258 349.140 M291.312 350.709 C 292.054 351.486,292.232 351.466,291.915 350.640 C 291.790 350.313,291.460 350.045,291.183 350.045 C 290.799 350.045,290.830 350.203,291.312 350.709 M293.122 352.504 C 293.471 352.860,293.816 353.005,293.890 352.824 C 293.964 352.643,293.801 352.354,293.528 352.181 C 292.682 351.645,292.457 351.823,293.122 352.504 M294.740 354.050 C 295.082 354.249,295.525 354.692,295.724 355.034 C 295.923 355.376,296.092 355.464,296.098 355.229 C 296.104 354.995,295.853 354.547,295.540 354.234 C 295.227 353.921,294.779 353.670,294.544 353.676 C 294.310 353.682,294.398 353.850,294.740 354.050 M314.711 355.830 C 314.290 356.000,313.850 356.519,313.733 356.983 C 313.535 357.768,313.555 357.781,314.016 357.165 C 314.289 356.801,314.810 356.277,315.174 356.000 C 315.928 355.429,315.810 355.386,314.711 355.830 M297.104 356.501 C 297.846 357.278,298.024 357.257,297.707 356.432 C 297.582 356.105,297.252 355.837,296.975 355.837 C 296.591 355.837,296.622 355.995,297.104 356.501 M298.914 358.311 C 299.656 359.088,299.834 359.067,299.517 358.242 C 299.392 357.915,299.062 357.647,298.785 357.647 C 298.401 357.647,298.432 357.805,298.914 358.311 M312.109 358.081 C 311.870 358.320,311.674 358.689,311.674 358.901 C 311.674 359.112,311.308 359.446,310.860 359.643 C 310.304 359.887,310.025 360.345,309.980 361.086 C 309.941 361.737,309.992 361.882,310.107 361.448 C 310.212 361.050,310.730 360.292,311.257 359.764 C 312.649 358.373,313.193 357.647,312.847 357.647 C 312.680 357.647,312.348 357.843,312.109 358.081 M300.724 360.106 C 301.072 360.462,301.418 360.606,301.492 360.426 C 301.566 360.245,301.403 359.956,301.130 359.783 C 300.284 359.247,300.059 359.425,300.724 360.106 " stroke="none" fill="#686868" fill-rule="evenodd"></path></g></svg>